<svg width="290" height="200" viewBox="0 0 290 200" fill="none" xmlns="http://www.w3.org/2000/svg">
<path d="M48.3085 59L16 141.41H33.3249L40.3485 125.49H52.0544L58.1416 111.443H45.0309L54.8639 88.4991L74.5299 141.41H93.2595L60.951 59H48.3085Z" fill="white"/>
<path d="M118.076 59H99.8149V141.41H151.789L145.234 125.49H118.076V59Z" fill="white"/>
<path d="M213.129 59H158.813V141.41H177.074V113.316H198.145V96.9274H177.074V76.3249H206.574L213.129 59Z" fill="white"/>
<path d="M229.049 59.4682L196.74 141.878H214.065L221.089 125.958H232.795L238.882 111.911H225.771L235.604 88.9673L255.27 141.878H274L241.691 59.4682H229.049Z" fill="white"/>
</svg>
