<svg width="290" height="200" viewBox="0 0 290 200" fill="none" xmlns="http://www.w3.org/2000/svg">
<path d="M65.3722 57.8442V152.858L12 101.832V57.8442H65.3722Z" fill="#F8BD00"/>
<path d="M228.421 25H12V101.832H228.421V25Z" fill="#FAC725"/>
<path d="M56.9313 56.4664C57.0242 55.1224 56.6757 54.0817 55.8859 53.3443C55.1077 52.6069 53.8765 52.2382 52.1923 52.2382C51.0773 52.2382 50.1248 52.3869 49.335 52.6842C48.5452 52.9696 47.9238 53.374 47.4708 53.8974C47.0178 54.4088 46.7332 55.0035 46.6171 55.6814C46.5126 56.2166 46.5416 56.6924 46.7042 57.1086C46.8668 57.5249 47.1514 57.8936 47.5579 58.2148C47.9761 58.5359 48.4929 58.8154 49.1085 59.0533C49.7357 59.2911 50.4384 59.4993 51.2167 59.6777L54.1436 60.3913C55.8394 60.7838 57.3088 61.3071 58.5516 61.9613C59.806 62.6035 60.8223 63.3826 61.6005 64.2984C62.3787 65.2023 62.913 66.243 63.2034 67.4205C63.4938 68.598 63.517 69.9182 63.2731 71.3811C62.9014 73.6885 62.0129 75.6687 60.6074 77.322C59.2136 78.9752 57.3901 80.2419 55.1367 81.122C52.895 82.0021 50.2875 82.4422 47.314 82.4422C44.3405 82.4422 41.8143 81.9843 39.7352 81.0685C37.6677 80.1408 36.1693 78.7433 35.2401 76.876C34.3109 75.0087 34.0612 72.6537 34.491 69.8111H42.7319C42.6041 70.9886 42.7493 71.9698 43.1674 72.7548C43.5972 73.5398 44.2592 74.1345 45.1536 74.5389C46.048 74.9432 47.1282 75.1454 48.3942 75.1454C49.5557 75.1454 50.572 74.9849 51.4431 74.6637C52.3259 74.3426 53.0286 73.8966 53.5513 73.3257C54.0856 72.7548 54.4108 72.1006 54.5269 71.3632C54.6431 70.6853 54.5328 70.0966 54.1959 69.597C53.8707 69.0975 53.3132 68.6634 52.5233 68.2947C51.7451 67.926 50.723 67.5929 49.457 67.2956L45.8853 66.4036C42.9351 65.6662 40.6992 64.4887 39.1776 62.8711C37.6677 61.2536 37.1334 59.0592 37.5748 56.288C37.9464 54.0163 38.864 52.03 40.3275 50.3292C41.8026 48.6284 43.6669 47.3083 45.9202 46.3687C48.1851 45.4172 50.6766 44.9414 53.3945 44.9414C56.1589 44.9414 58.4819 45.4231 60.3635 46.3865C62.2568 47.338 63.6215 48.682 64.4578 50.4184C65.3057 52.143 65.5496 54.159 65.1896 56.4664H56.9313Z" fill="black"/>
<path d="M65.9213 81.9784L71.845 45.4409H86.5845C89.256 45.4409 91.4803 45.9702 93.2574 47.0287C95.0345 48.0873 96.2947 49.5681 97.0381 51.471C97.7814 53.374 97.9498 55.5803 97.5433 58.0899C97.1484 60.6232 96.2599 62.8295 94.8777 64.7087C93.5071 66.5879 91.7416 68.0449 89.5812 69.0796C87.4208 70.1144 84.9642 70.6318 82.2114 70.6318H73.1343L74.2667 63.674H81.7585C83.071 63.674 84.2034 63.442 85.1559 62.9782C86.1199 62.5143 86.8923 61.8661 87.4731 61.0336C88.0538 60.201 88.4371 59.2198 88.623 58.0899C88.7972 56.96 88.7275 55.9847 88.4139 55.164C88.1003 54.3315 87.5369 53.6892 86.7239 53.2373C85.9225 52.7853 84.8771 52.5593 83.5878 52.5593H79.3367L74.5455 81.9784H65.9213Z" fill="black"/>
<path d="M134.431 64.2805C133.781 68.2174 132.503 71.5416 130.598 74.2534C128.705 76.9533 126.399 78.999 123.682 80.3905C120.975 81.7821 118.066 82.4779 114.953 82.4779C111.666 82.4779 108.82 81.7286 106.416 80.23C104.011 78.7314 102.263 76.5489 101.172 73.6825C100.091 70.8161 99.8823 67.3372 100.544 63.2458C101.172 59.309 102.432 55.9787 104.325 53.2551C106.23 50.5314 108.547 48.4679 111.277 47.0644C114.018 45.6491 116.956 44.9414 120.093 44.9414C123.356 44.9414 126.185 45.6967 128.577 47.2072C130.982 48.7177 132.724 50.912 133.804 53.7903C134.884 56.6686 135.093 60.1653 134.431 64.2805ZM125.807 63.2458C126.167 60.9503 126.167 59.0176 125.807 57.4476C125.459 55.8777 124.773 54.6942 123.751 53.8974C122.729 53.0886 121.399 52.6842 119.761 52.6842C117.95 52.6842 116.312 53.1421 114.848 54.0579C113.396 54.9618 112.183 56.282 111.207 58.0185C110.231 59.7431 109.552 61.8304 109.169 64.2805C108.774 66.5998 108.762 68.5325 109.134 70.0787C109.517 71.6249 110.231 72.7905 111.277 73.5755C112.322 74.3485 113.652 74.7351 115.266 74.7351C117.067 74.7351 118.687 74.2891 120.127 73.3971C121.568 72.505 122.77 71.2027 123.734 69.49C124.709 67.7773 125.401 65.6959 125.807 63.2458Z" fill="black"/>
<path d="M136.592 81.9784L142.515 45.4409H157.255C159.926 45.4409 162.156 45.9345 163.945 46.9217C165.734 47.897 167.006 49.3004 167.761 51.1321C168.516 52.9518 168.69 55.1105 168.283 57.6082C167.888 60.1296 167.006 62.2765 165.635 64.0486C164.276 65.8089 162.522 67.1529 160.374 68.0806C158.236 69.0083 155.809 69.4721 153.091 69.4721H143.77L144.92 62.5143H152.638C153.927 62.5143 155.042 62.3419 155.983 61.997C156.924 61.6401 157.673 61.1049 158.231 60.3913C158.8 59.6658 159.177 58.7381 159.363 57.6082C159.537 56.4783 159.456 55.5446 159.119 54.8072C158.794 54.0579 158.219 53.4989 157.394 53.1302C156.581 52.7496 155.536 52.5593 154.258 52.5593H150.007L145.216 81.9784H136.592ZM159.38 65.2796L165.565 81.9784H156.157L150.164 65.2796H159.38Z" fill="black"/>
<path d="M173.031 52.6128L174.216 45.4409H204.374L203.19 52.6128H192.37L187.631 81.9784H179.129L183.868 52.6128H173.031Z" fill="black"/>
<rect x="130.475" y="102.781" width="135.193" height="74.0259" transform="rotate(-12.6851 130.475 102.781)" fill="#11151A"/>
<path d="M153.304 156.233L151.286 114.651L168.202 110.96C171.24 110.297 173.808 110.181 175.908 110.612C178.008 111.043 179.615 111.937 180.727 113.295C181.853 114.649 182.464 116.37 182.559 118.455C182.612 120.03 182.341 121.512 181.744 122.901C181.159 124.274 180.319 125.496 179.225 126.57C178.128 127.63 176.848 128.484 175.384 129.131L175.391 129.54C177.042 129.248 178.582 129.363 180.011 129.886C181.452 130.406 182.634 131.318 183.554 132.621C184.473 133.912 184.976 135.553 185.065 137.545C185.178 139.777 184.72 141.894 183.691 143.897C182.672 145.884 181.134 147.615 179.076 149.09C177.015 150.552 174.493 151.609 171.508 152.26L153.304 156.233ZM162.751 145.984L168.812 144.661C170.912 144.203 172.45 143.451 173.425 142.403C174.41 141.34 174.855 140.08 174.758 138.624C174.705 137.555 174.419 136.688 173.9 136.021C173.378 135.342 172.657 134.89 171.736 134.667C170.813 134.431 169.718 134.451 168.45 134.728L162.21 136.089L162.751 145.984ZM161.936 129.604L167.384 128.415C168.44 128.184 169.372 127.796 170.18 127.251C171.001 126.702 171.63 126.032 172.065 125.239C172.514 124.443 172.709 123.559 172.649 122.588C172.58 121.194 172.039 120.204 171.026 119.618C170.012 119.032 168.694 118.916 167.069 119.271L161.483 120.49L161.936 129.604Z" fill="white"/>
<path d="M190.346 148.149L188.328 106.568L216.615 100.395L216.986 108.562L198.504 112.595L198.953 121.115L215.988 117.398L216.363 125.585L199.328 129.302L199.78 137.842L218.262 133.809L218.633 141.976L190.346 148.149Z" fill="white"/>
<path d="M221.799 107.512L221.428 99.3446L255.717 91.8619L256.088 100.029L243.787 102.714L245.434 136.128L235.768 138.237L234.12 104.823L221.799 107.512Z" fill="white"/>
</svg>
