<svg width="40" height="40" viewBox="0 0 40 40" fill="none" xmlns="http://www.w3.org/2000/svg">
<path fill-rule="evenodd" clip-rule="evenodd" d="M34.4125 24.2743L26.7603 11.4247L29.2927 7.1238L37 19.9734L34.4125 24.2743Z" fill="#910F19"/>
<path fill-rule="evenodd" clip-rule="evenodd" d="M26.7603 28.5221L29.2927 32.823L37 19.9734L34.4676 15.6725L26.7603 28.5221Z" fill="#D22D2D"/>
<path fill-rule="evenodd" clip-rule="evenodd" d="M6.53241 15.6725L14.2397 28.5221L11.7073 32.823L4 19.9734L6.53241 15.6725Z" fill="#00823C"/>
<path fill-rule="evenodd" clip-rule="evenodd" d="M6.64251 24.3805L14.3498 11.5309L11.7073 7.1238L4 19.9734L6.64251 24.3805Z" fill="#00A546"/>
<path fill-rule="evenodd" clip-rule="evenodd" d="M18.7516 35L27.7252 19.9734L25.1377 15.6725L13.5767 35H18.7516Z" fill="#0078B4"/>
<path fill-rule="evenodd" clip-rule="evenodd" d="M13.2752 19.9735L22.2487 5H27.3686L15.8627 24.2744L13.2752 19.9735Z" fill="#EB7D14"/>
</svg>
