<svg width="33" height="33" viewBox="0 0 33 33" fill="none" xmlns="http://www.w3.org/2000/svg">
<g clip-path="url(#clip0_445_3171)">
<mask id="mask0_445_3171" style="mask-type:luminance" maskUnits="userSpaceOnUse" x="0" y="0" width="33" height="33">
<path d="M0 0H33V33H0V0Z" fill="white"/>
</mask>
<g mask="url(#mask0_445_3171)">
<path d="M9.85865 18.6966H19.9133V23.2753H9.85865V18.6966ZM10.2918 27.2353H21.6149V31.9688H4.22803V10.3125H21.2127V15.0459H10.2918V27.2353Z" fill="black"/>
<path d="M31.2768 4.80758C31.2768 6.08334 30.77 7.30685 29.8679 8.20895C28.9658 9.11105 27.7423 9.61785 26.4665 9.61785C25.1908 9.61785 23.9672 9.11105 23.0651 8.20895C22.163 7.30685 21.6562 6.08334 21.6562 4.80758C21.6562 3.53182 22.163 2.30831 23.0651 1.40621C23.9672 0.504109 25.1908 -0.00268555 26.4665 -0.00268555C27.7423 -0.00268555 28.9658 0.504109 29.8679 1.40621C30.77 2.30831 31.2768 3.53182 31.2768 4.80758Z" fill="#E73046"/>
</g>
</g>
<defs>
<clipPath id="clip0_445_3171">
<rect width="33" height="33" fill="white"/>
</clipPath>
</defs>
</svg>
