<svg width="33" height="33" viewBox="0 0 33 33" fill="none" xmlns="http://www.w3.org/2000/svg">
<g clip-path="url(#clip0_445_3165)">
<path d="M8.38258 10.3547L16.2727 14.0302C16.0856 13.9055 12.3322 11.3668 11.1785 9.38815C10.0248 7.40815 10.0768 5.83739 11.0797 4.36409C12.0827 2.89079 14.5681 1.97613 18.3502 2.21648C22.1309 2.45554 26.2844 3.60145 29.4 6.40513C27.2264 3.18047 23.8134 0.99 19.9729 0.361195C18.827 0.123428 17.6538 0 16.4819 0C12.2322 0 8.13446 1.58374 4.99167 4.4433C4.33427 4.97476 3.86439 5.70281 3.65088 6.52075C3.71324 8.53585 8.38261 10.3547 8.38261 10.3547L8.38258 10.3547Z" fill="#2F98D5"/>
<path d="M11.0798 28.6386C10.0768 27.1743 9.98843 25.666 11.1785 23.6158C12.3673 21.5656 16.2727 18.9646 16.2727 18.9646L8.38261 22.6388C8.38261 22.6388 3.70415 24.4681 3.65088 26.4819C3.86396 27.3004 4.33428 28.0292 4.99166 28.5593C8.13707 31.4137 12.2361 33 16.4858 33C17.6538 33 18.8205 32.8792 19.9651 32.6427C23.8081 32.0152 27.2277 29.8209 29.3999 26.5884C26.2844 29.3934 22.1218 30.5471 18.3488 30.7862C14.5759 31.0265 12.0827 30.1119 11.0797 28.6386H11.0798Z" fill="#F9AE00"/>
<path d="M8.38244 22.6388L16.2726 18.9646C16.2726 18.9646 18.5176 17.7654 18.5176 16.5767V16.4169C18.5176 15.2372 16.2726 14.0302 16.2726 14.0302L8.38244 10.3547C8.38244 10.3547 3.71307 8.53581 3.65071 6.52075C3.27914 8.34874 5.00968 9.92858 6.44663 11.2876C8.35518 13.0623 9.20744 14.8903 9.18927 16.4974C9.17238 18.1032 8.35518 19.9052 6.44663 21.7164C5.00971 23.0649 3.27785 24.6448 3.65071 26.4819C3.70398 24.4681 8.38244 22.6388 8.38244 22.6388Z" fill="#E40E20"/>
</g>
<defs>
<clipPath id="clip0_445_3165">
<rect width="33" height="33" fill="white"/>
</clipPath>
</defs>
</svg>
