<svg width="33" height="33" viewBox="0 0 33 33" fill="none" xmlns="http://www.w3.org/2000/svg">
<g clip-path="url(#clip0_445_3164)">
<path d="M11.8873 6.59406C11.5924 5.75468 11.3052 4.92962 11.0753 4.08509C10.8388 3.21974 10.6621 2.34141 10.5283 1.45398C10.4542 0.960241 10.4659 0.945965 10.9375 0.780933C11.8938 0.447001 12.8683 0.184548 13.8701 0.031214C14.334 -0.0402323 14.3573 -0.0246669 14.4197 0.45219C14.6848 2.45833 15.2448 4.37742 16.0971 6.21075C16.1933 6.41865 16.2466 6.75648 16.4675 6.76686C16.7494 6.78113 16.7871 6.42255 16.8884 6.20557C17.7369 4.39301 18.2943 2.49213 18.5503 0.504171C18.6204 -0.0324335 18.6347 -0.045453 19.1739 0.0351134C20.177 0.184548 21.1463 0.469076 22.1026 0.796498C22.5392 0.945933 22.5301 0.964108 22.4625 1.43835C22.2325 3.02741 21.8219 4.56839 21.2788 6.07692C21.219 6.24582 21.032 6.44852 21.2138 6.60833C21.3581 6.73437 21.5413 6.57066 21.6972 6.50698C23.2589 5.85471 24.6271 4.90883 25.8303 3.72125L25.9953 3.55625C26.4371 3.11707 26.4358 3.11839 26.9282 3.53028C27.6597 4.14355 28.3626 4.78673 28.9759 5.52082C29.2864 5.89113 29.2838 5.89761 28.9629 6.23415C26.619 8.69765 23.789 10.314 20.4966 11.1261C20.3459 11.1625 20.1926 11.191 20.0431 11.2365C19.6884 11.3443 19.6624 11.421 19.9353 11.7004C20.8357 12.6216 21.831 13.4324 22.9016 14.147C23.2355 14.3692 23.2472 14.3601 23.637 13.995C25.2845 12.4501 27.1426 11.2222 29.1916 10.288C29.7932 10.0139 30.4117 9.78001 31.0314 9.55001C31.4511 9.39409 31.52 9.43048 31.6941 9.84884C32.0813 10.787 32.4113 11.7432 32.6244 12.7385C32.7192 13.1855 32.714 13.2076 32.2606 13.3687C31.2679 13.7195 30.3142 14.1535 29.4047 14.6836C28.8171 15.0276 28.2488 15.4036 27.7026 15.8101C27.5518 15.9232 27.3102 16.0154 27.3349 16.2246C27.3661 16.4845 27.6584 16.4662 27.8481 16.526C29.2423 16.9691 30.6689 17.2472 32.128 17.3589C33.2247 17.4446 33.0116 17.4095 32.9258 18.3438C32.844 19.2182 32.6751 20.0796 32.4282 20.9229C32.2957 21.3724 32.284 21.3907 31.8188 21.3556C30.2246 21.2399 28.6602 20.9528 27.127 20.5019C23.2433 19.3585 19.8846 17.3303 17.0222 14.4653C16.4622 13.9053 16.5648 13.8429 15.9646 14.451C12.9242 17.5239 9.31467 19.6093 5.13998 20.7033C3.87963 21.0334 2.59592 21.2516 1.29661 21.3517C0.696321 21.3972 0.705409 21.3816 0.53651 20.819C0.267547 19.9186 0.132421 18.9935 0.027169 18.0631C-0.0429882 17.4434 -0.03129 17.4226 0.622265 17.3771C2.04371 17.2771 3.43787 17.0406 4.80215 16.6313C5.04397 16.5583 5.28398 16.4795 5.52196 16.3948C5.72856 16.322 5.75193 16.1856 5.59212 16.0492C5.36956 15.8604 5.13755 15.683 4.89699 15.5178C3.60938 14.6316 2.24249 13.8988 0.765157 13.3817C0.250628 13.2024 0.246729 13.1946 0.367578 12.6775C0.591069 11.7264 0.876919 10.796 1.27321 9.90211C1.49409 9.40447 1.50189 9.39277 2.00733 9.56689C3.68604 10.1503 5.26212 10.9416 6.74202 11.929C7.68404 12.5566 8.55847 13.266 9.39524 14.0248C9.76684 14.3613 9.76684 14.3561 10.1787 14.0807C11.1734 13.4102 12.0422 12.6928 12.8361 11.9002L12.8358 11.9004C12.932 11.8043 13.032 11.7094 13.1178 11.6055C13.2555 11.4379 13.1931 11.3184 13.0086 11.2508C12.8995 11.2118 12.7839 11.1884 12.6708 11.1624C9.32508 10.3893 6.45879 8.76129 4.06416 6.2939C4.01052 6.23632 3.95621 6.17939 3.90122 6.1231L3.90306 6.125C3.75752 5.97946 3.73026 5.83006 3.87708 5.66503C4.63979 4.80229 5.45705 3.99801 6.36136 3.28468C6.54715 3.13785 6.67451 3.22361 6.80964 3.36264C7.27089 3.83949 7.74775 4.29553 8.26618 4.70874C9.24848 5.48833 10.3152 6.11849 11.4794 6.58365C11.582 6.62522 11.6886 6.69148 11.8874 6.59406H11.8873Z" fill="#E6642B"/>
<path d="M16.4389 32.9934C15.953 32.9934 15.467 33.0142 14.9837 32.9882C14.5549 32.9648 14.4939 32.8843 14.4926 32.4438C14.4874 30.9626 14.4744 29.4814 14.4991 28.0015C14.5069 27.5233 14.3705 27.1504 14.0794 26.7749C12.4696 24.6999 10.8805 22.6093 9.28882 20.5213C8.88212 19.9873 8.88992 19.9834 9.5097 19.6846C10.3153 19.2961 11.104 18.8777 11.8628 18.4008C12.4357 18.0396 12.4396 18.0461 12.8359 18.5658C13.9105 19.973 14.9837 21.3789 16.0595 22.786C16.4896 23.3486 16.5013 23.3473 16.9184 22.8003C18.0163 21.3607 19.1129 19.9223 20.2121 18.4852C20.5473 18.0461 20.5551 18.0396 21.0021 18.3228C21.857 18.8633 22.7497 19.3337 23.6631 19.7677C24.0594 19.9561 24.0724 20.0171 23.806 20.3667C22.1572 22.5352 20.5109 24.7051 18.8452 26.8593C18.5892 27.1894 18.4775 27.5142 18.4814 27.9261C18.497 29.4073 18.4879 30.8885 18.4866 32.3684C18.4853 32.9038 18.4671 32.9479 17.9513 32.983C17.4485 33.0168 16.943 32.9908 16.4389 32.9908V32.9934H16.4389Z" fill="#E6642B"/>
</g>
<defs>
<clipPath id="clip0_445_3164">
<rect width="33" height="33" fill="white"/>
</clipPath>
</defs>
</svg>
