<svg width="33" height="33" viewBox="0 0 33 33" fill="none" xmlns="http://www.w3.org/2000/svg">
<g clip-path="url(#clip0_445_3168)">
<mask id="mask0_445_3168" style="mask-type:luminance" maskUnits="userSpaceOnUse" x="0" y="0" width="33" height="33">
<path d="M0 0H33V33H0V0Z" fill="white"/>
</mask>
<g mask="url(#mask0_445_3168)">
<path d="M1.30411e-09 0V0.162938C-2.62196e-05 3.46455 0.395352 6.75429 1.17769 9.96187C1.70218 12.1083 2.40094 14.2084 3.267 16.2412L3.31341 16.3494C4.2183 18.4514 5.29587 20.4748 6.53503 22.3987C7.35104 23.6632 8.23581 24.8819 9.18534 26.0494L9.38541 26.2969C9.52359 26.4588 9.66178 26.6258 9.801 26.7898C10.6234 27.7531 11.4888 28.6787 12.3946 29.5639C12.8361 29.9951 13.2876 30.4159 13.7486 30.8261C14.5745 31.563 15.4301 32.2659 16.3133 32.933L16.4082 33L16.5031 32.9309L16.633 32.8309C18.3507 31.5236 19.9612 30.0811 21.449 28.5172C22.0032 27.9359 22.5404 27.3385 23.0598 26.7259L23.0876 26.6929L23.4228 26.2938L23.6239 26.0483C24.593 24.8535 25.4957 23.6062 26.3278 22.3121C26.8538 21.4923 27.3622 20.7962 27.8365 19.9237L28.1119 19.4215C28.5811 18.5656 29.0245 17.7571 29.4319 16.8166L29.5298 16.5897H11.0725L11.1994 16.829C11.7428 17.8417 12.3399 18.7007 12.969 19.6113L13.2433 20.0073H23.7188C23.429 20.4755 23.1206 20.7859 22.8061 21.252C22.1863 22.1646 21.5264 23.0493 20.8282 23.9033C20.2168 24.6542 19.5759 25.3804 18.9069 26.0803C18.8286 26.1628 18.7522 26.2432 18.6708 26.3237C17.9474 27.0698 17.1928 27.7851 16.4092 28.4677C15.6232 27.7841 14.8663 27.0678 14.1405 26.3206C14.0621 26.2412 13.9858 26.1608 13.9085 26.0803C13.7012 25.8638 13.498 25.6462 13.2959 25.4286C12.8452 24.9332 12.4085 24.4253 11.9862 23.9054C7.24187 18.1148 4.34679 11.0323 3.67641 3.57637H29.1307C29.038 4.60242 28.9031 5.62422 28.7265 6.63919C28.543 7.68887 28.3152 8.73033 28.0438 9.76078H8.28816L8.35003 9.96909C8.66972 11.054 9.03684 11.9532 9.46172 12.9938L9.53597 13.1763H30.6487L30.7168 12.9752C31.0664 11.9357 31.3675 11.0395 31.6305 9.96187C32.1585 7.81628 32.5093 5.63093 32.6793 3.42787C32.7652 2.34134 32.8082 1.25183 32.8082 0.161906V0H1.30411e-09Z" fill="black"/>
</g>
</g>
<defs>
<clipPath id="clip0_445_3168">
<rect width="33" height="33" fill="white"/>
</clipPath>
</defs>
</svg>
