<svg width="33" height="33" viewBox="0 0 33 33" fill="none" xmlns="http://www.w3.org/2000/svg">
<g clip-path="url(#clip0_445_3179)">
<path d="M27.1768 -0.0012207H5.37559C4.94163 -0.0012207 4.58691 0.353497 4.58691 0.786171V32.214C4.58691 32.6467 4.94163 33.0014 5.37559 33.0014H27.1768C27.6095 33.0014 27.9642 32.6467 27.9642 32.214V0.786171C27.9642 0.353497 27.6095 -0.0012207 27.1768 -0.0012207ZM9.26315 14.8499C12.3412 14.1327 11.524 13.4753 16.9629 13.4753C19.2458 13.4753 22.0367 14.1171 23.5634 14.8499C23.5634 19.8614 23.2113 21.3244 19.0535 24.0907C18.04 24.765 17.0188 25.1652 16.6887 26.4009C15.7285 25.759 15.9091 25.5043 14.1031 24.3103C9.90501 21.5362 9.68412 21.0815 9.54771 17.0393C9.50743 15.8114 9.29695 16.0947 9.26315 14.85V14.8499ZM19.7135 21.175C21.1519 20.2122 21.873 18.5855 21.9133 16.7755C21.7366 16.9782 21.7379 16.8691 21.5508 17.2368C21.3299 17.6721 21.4702 17.4538 21.3221 17.8332C21.1493 18.2776 21.035 18.5374 20.8154 18.9766C20.4672 19.6769 19.9058 20.4526 19.7135 21.175ZM17.2384 10.175C19.1263 10.175 20.5776 10.3283 22.0796 10.8337C24.026 11.4873 24.1143 12.1421 24.1143 14.5745C19.9695 12.3825 12.8571 12.3825 8.71224 14.5745C8.71224 13.6455 8.64598 12.6242 8.96689 12.0785C9.61655 10.9702 11.6305 10.583 12.718 10.3296C13.66 10.1113 14.2798 10.175 15.3127 10.175C16.2235 8.81461 18.3557 6.64216 20.2631 6.59926C20.0202 9.51754 17.8113 8.02722 17.2383 10.175H17.2384Z" fill="#EF9604"/>
<path d="M19.7134 21.1749C21.1518 20.2121 21.8729 18.5853 21.9132 16.7754C21.7365 16.9781 21.7378 16.8689 21.5507 17.2367C21.3298 17.6719 21.4701 17.4536 21.322 17.833C21.1492 18.2774 21.0349 18.5372 20.8153 18.9764C20.4671 19.6767 19.9057 20.4524 19.7134 21.1749Z" fill="#EF9604"/>
</g>
<defs>
<clipPath id="clip0_445_3179">
<rect width="23" height="33" fill="white" transform="translate(5)"/>
</clipPath>
</defs>
</svg>
