<svg width="33" height="33" viewBox="0 0 33 33" fill="none" xmlns="http://www.w3.org/2000/svg">
<g clip-path="url(#clip0_445_3161)">
<mask id="mask0_445_3161" style="mask-type:luminance" maskUnits="userSpaceOnUse" x="0" y="0" width="33" height="33">
<path d="M0 0H33V33H0V0Z" fill="white"/>
</mask>
<g mask="url(#mask0_445_3161)">
<path d="M0 21.4418V11.9832L4.77159 16.7547L0 21.4418Z" fill="#FCC42C"/>
<path d="M14.3849 16.1968C14.8203 15.5405 15.0478 14.7682 15.0376 13.9807L15.0273 8.23454C15.0376 8.11492 15.0376 7.99426 15.0273 7.87464C14.956 6.85073 14.4915 5.89405 13.731 5.20473C12.9795 4.49586 11.9807 4.10877 10.9477 4.12604H7.13208V16.1968H14.3849ZM11.848 7.22185C12.1006 7.45492 12.2533 7.77667 12.2729 8.12111L12.2832 8.23454L12.2925 13.9807C12.2933 14.1599 12.2586 14.3376 12.1903 14.5034C12.1221 14.6691 12.0217 14.8197 11.895 14.9465C11.7682 15.0733 11.6176 15.1736 11.4518 15.2419C11.2861 15.3101 11.1084 15.3448 10.9291 15.344H9.83086V6.86195H10.9095C11.2571 6.85473 11.5933 6.98364 11.848 7.22185ZM15.3037 19.1029C15.2547 18.4384 15.0394 17.7969 14.6777 17.2374H7.14239V29.2989H11.222C11.7602 29.3079 12.2944 29.2058 12.7912 28.9989C13.2881 28.792 13.7369 28.4848 14.1095 28.0964C14.4939 27.7188 14.7984 27.2678 15.0049 26.7701C15.2115 26.2725 15.3159 25.7384 15.312 25.1996L15.3027 19.4535C15.313 19.3369 15.313 19.2195 15.3027 19.1029H15.3037ZM12.5668 25.1996C12.5684 25.3813 12.5332 25.5615 12.4632 25.7292C12.3931 25.8969 12.2898 26.0486 12.1594 26.1752C12.0377 26.3008 11.892 26.4006 11.731 26.4688C11.57 26.537 11.3969 26.5722 11.222 26.5722H9.86902V18.0902H11.2323C11.5706 18.0861 11.8965 18.216 12.1398 18.4491C12.3935 18.6842 12.5482 19.0059 12.576 19.3494L12.5864 19.4628L12.5668 25.1996Z" fill="#111111"/>
<path d="M18.9493 16.1732H23.3991C22.9062 15.7658 22.4143 15.3482 21.9224 14.9418C21.0417 14.1375 20.5498 13.1145 20.4456 11.8749C20.4259 11.6641 20.4162 11.4524 20.4167 11.2407L20.4353 8.22944C20.434 7.96565 20.5096 7.70719 20.6527 7.48559C20.7958 7.264 21.0003 7.08883 21.2413 6.98147C21.4823 6.87411 21.7493 6.83919 22.0097 6.88097C22.2702 6.92275 22.5129 7.03942 22.7082 7.21675C22.9608 7.45188 23.1155 7.7726 23.1434 8.116L23.1537 8.22944V10.1424H25.8607V8.23872C25.87 8.11928 25.87 7.99929 25.8607 7.87985C25.7894 6.85542 25.3245 5.89831 24.5634 5.20891C23.7937 4.49488 22.7763 4.1085 21.7266 4.13159C20.677 4.15469 19.6775 4.58546 18.94 5.33266C18.5561 5.71134 18.2514 6.16252 18.0433 6.65998C17.8353 7.15744 17.7282 7.69127 17.7283 8.23047L17.718 12.0636C17.7087 12.3668 17.718 12.67 17.7375 12.9629C17.851 14.2509 18.249 15.311 18.9493 16.1732ZM24.5438 17.2147H20.0857C20.5962 17.6406 21.117 18.0758 21.6377 18.5017C22.5184 19.3061 22.9732 20.3291 23.0774 21.5697C23.0959 21.7677 23.0866 22.2132 23.0866 22.1936L23.0959 25.2048C23.0979 25.3874 23.0618 25.5685 22.9901 25.7364C22.9184 25.9043 22.8125 26.0555 22.6793 26.1804C22.4299 26.427 22.0953 26.5684 21.7447 26.5753C21.394 26.5822 21.0541 26.4542 20.7952 26.2175C20.5418 25.9845 20.3891 25.662 20.3693 25.3183C20.3693 25.2801 20.359 25.243 20.359 25.2048L20.3879 23.2929H17.6808V25.2048C17.6705 25.3245 17.6705 25.4451 17.6808 25.5648C17.7489 26.5878 18.2099 27.5448 18.9678 28.2347C19.5539 28.7657 20.2814 29.1155 21.0622 29.2415C21.843 29.3676 22.6436 29.2645 23.367 28.9449C24.0905 28.6252 24.7057 28.1027 25.1382 27.4405C25.5707 26.7784 25.802 26.005 25.804 25.2141L25.8133 21.3799C25.8213 21.0801 25.8147 20.7799 25.7937 20.4807C25.6802 19.1648 25.2636 18.0758 24.5448 17.2147H24.5438ZM33 21.4418V11.9832L28.2285 16.7548L33 21.4418Z" fill="#FCC42C"/>
</g>
</g>
<defs>
<clipPath id="clip0_445_3161">
<rect width="33" height="33" fill="white"/>
</clipPath>
</defs>
</svg>
