<svg width="33" height="33" viewBox="0 0 33 33" fill="none" xmlns="http://www.w3.org/2000/svg">
<g clip-path="url(#clip0_445_3167)">
<path d="M3.30547 0.0143402H14.8278C19.5001 -0.198742 24.331 1.81909 27.1986 5.58841C29.0033 7.92458 29.6413 10.9507 29.7465 13.8715C27.5702 13.9248 25.3938 13.8715 23.1629 13.8715C23.1109 11.2703 21.9428 8.45599 19.5001 7.28791C16.474 5.90674 13.075 6.59797 9.8891 6.49143C9.83711 8.93414 9.8891 11.4288 9.83711 13.8715H3.30547V0.0143402ZM3.30547 15.5178C5.48311 15.4645 7.65947 15.4645 9.78384 15.4645V32.6661H3.2522C3.30547 26.9323 3.30547 21.2516 3.30547 15.5178ZM23.1109 15.7296H29.6946C29.7466 21.4634 29.6946 27.144 29.6946 32.8792C27.5169 33.091 25.2873 32.9845 23.0577 32.8792C23.0577 27.144 23.0044 21.4102 23.1109 15.7296Z" fill="#FFFC00"/>
</g>
<defs>
<clipPath id="clip0_445_3167">
<rect width="33" height="33" fill="white"/>
</clipPath>
</defs>
</svg>
