<svg width="33" height="33" viewBox="0 0 33 33" fill="none" xmlns="http://www.w3.org/2000/svg">
<g clip-path="url(#clip0_445_3181)">
<path d="M22.5737 26.8833H4.90051C2.23453 26.8833 -0.328832 24.4239 0.0336519 21.7657C0.418211 18.9295 2.00585 14.4771 2.88412 11.7514C3.94038 8.50205 7.11695 6.1167 9.76736 6.1167H28.1408C30.8237 6.1167 32.9999 8.29157 32.9999 10.9758C32.9999 11.4305 32.9349 11.8839 32.8102 12.3204C31.9683 15.067 30.595 19.4025 29.783 21.9216C28.9697 24.2693 25.2254 26.8833 22.5737 26.8833Z" fill="#FEFEFE"/>
<path d="M28.3787 7.67435H24.3525C21.6527 7.67435 19.2492 9.38671 18.3657 11.9358L16.3272 18.4279C14.0588 24.0626 16.9548 25.0162 18.9491 25.0006H22.2789C24.7383 25.0006 27.4485 23.2129 28.1865 20.9172L30.9564 12.054C31.6722 9.97133 30.4548 7.67435 28.3787 7.67435ZM23.9484 20.7691H20.0781L22.7661 12.1579H26.6365L23.9484 20.7691ZM9.05941 18.5826H11.2005L10.5067 20.7613H6.33365L6.90922 18.9294L7.01315 18.6046L8.38642 14.3211L9.05941 12.1644H17.0574L17.0937 12.0397L18.2604 7.9329H10.5574C7.9902 7.94331 5.69318 9.53614 4.78372 11.9358L2.74526 18.4279C0.196202 24.4615 3.55727 25.0006 5.37356 25.0006H8.70476C8.75413 25.0019 8.8035 25.0019 8.85287 25.0019C11.4877 25.0019 13.8185 23.2948 14.6123 20.7834L16.4662 14.3068H10.447L9.05944 18.5825L9.05941 18.5826Z" fill="#DD2027"/>
</g>
<defs>
<clipPath id="clip0_445_3181">
<rect width="33" height="33" fill="white"/>
</clipPath>
</defs>
</svg>
