<svg width="33" height="33" viewBox="0 0 33 33" fill="none" xmlns="http://www.w3.org/2000/svg">
<g clip-path="url(#clip0_445_3166)">
<path d="M23.5723 9.74626L23.454 9.55786H-0.0012207V23.4424H16.9639L18.5348 21.0854H27.5404L29.0723 23.2696L29.1905 23.4346H33.0014L32.5856 22.8291L23.5723 9.74629V9.74626ZM14.7954 15.9856V19.9147L14.6927 20.0005C13.435 21.0776 11.5497 21.6272 9.19273 21.6272C4.98816 21.6272 2.47397 19.7172 2.47397 16.5118C2.47268 16.4712 2.47194 16.4235 2.47194 16.3756C2.47194 14.8363 3.23378 13.475 4.40093 12.6481L4.41514 12.6385C5.66025 11.836 7.18095 11.3591 8.81303 11.3591C8.92418 11.3591 9.03479 11.3613 9.14487 11.3657L9.12905 11.3652C11.4873 11.3652 13.1127 11.8291 14.3393 12.8191L14.5667 13.0075L14.3783 13.2349L13.5922 14.2718L13.4038 14.5082L13.1686 14.3121C12.3826 13.6286 11.3535 13.1726 9.12908 13.1726C6.15885 13.1726 4.65813 14.2718 4.65813 16.4962C4.65813 18.7193 6.11986 19.8355 9.12908 19.8355C10.3972 19.9212 11.6627 19.6497 12.7828 19.0494V17.5565H8.14681V15.6867H14.8032L14.7954 15.9856H14.7954ZM20.5461 18.1229L22.9979 14.4849L25.4965 18.1229H20.5461Z" fill="#0486D1"/>
</g>
<defs>
<clipPath id="clip0_445_3166">
<rect width="33" height="33" fill="white"/>
</clipPath>
</defs>
</svg>
