<svg width="33" height="33" viewBox="0 0 33 33" fill="none" xmlns="http://www.w3.org/2000/svg">
<g clip-path="url(#clip0_445_3182)">
<mask id="mask0_445_3182" style="mask-type:luminance" maskUnits="userSpaceOnUse" x="0" y="0" width="33" height="33">
<path d="M0 0H33V33H0V0Z" fill="white"/>
</mask>
<g mask="url(#mask0_445_3182)">
<path d="M29.903 21.3024C26.9609 22.9937 23.499 24.5323 19.7029 25.7667C14.3229 27.5137 9.12954 28.3696 4.79932 28.383C9.046 32.4657 15.3459 34.1363 21.3406 32.1883C27.2125 30.2784 31.2787 25.3893 32.4162 19.738C31.6145 20.2789 30.7938 20.7911 29.9556 21.2736L29.903 21.3024Z" fill="#E42314"/>
<path d="M22.7103 23.1857C24.4173 22.6327 26.0928 21.9868 27.7294 21.251V13.5033H24.6501V11.6883H32.0163C31.9874 11.5934 31.9637 11.4985 31.9307 11.4026C31.1692 9.04521 29.8845 6.89049 28.1728 5.09961C24.9461 5.31927 21.2954 6.02567 17.5314 7.24977C13.8261 8.45323 10.4951 10.0022 7.7778 11.6903H13.3362V13.4775H8.2759V15.5668H12.7422V17.2983H8.2759V19.5258H13.5157V21.3119H6.06387V12.834C1.94712 15.7834 -0.265948 19.0163 0.564209 21.5718C1.99455 25.9731 11.91 26.696 22.7103 23.1857ZM15.0873 13.9364C15.5402 13.1809 16.1948 12.5666 16.9776 12.1626C17.783 11.7378 18.6905 11.5243 19.7001 11.5243C20.5416 11.5243 21.3068 11.6666 21.9946 11.9502C22.6621 12.2195 23.2559 12.6437 23.7271 13.1877L22.2968 14.5077C21.61 13.7827 20.7808 13.4208 19.8094 13.4208C19.1948 13.4208 18.6492 13.5497 18.1728 13.8054C17.7063 14.0541 17.3207 14.4308 17.0611 14.8913C16.7961 15.3585 16.6631 15.8947 16.6631 16.5001C16.6631 17.0961 16.7961 17.6272 17.0611 18.0944C17.3204 18.5551 17.7038 18.9338 18.1676 19.1875C18.64 19.4484 19.1783 19.5794 19.7826 19.5794C20.3855 19.5887 20.9811 19.4469 21.5151 19.1669V16.3485H23.5497V20.2528C23.0027 20.6595 22.3883 20.9667 21.7347 21.1603C21.0628 21.3688 20.3634 21.4755 19.6599 21.4769C18.6596 21.4769 17.7624 21.2645 16.9652 20.8375C16.1882 20.4309 15.5386 19.8174 15.0883 19.0648C14.6346 18.3089 14.4077 17.455 14.4077 16.5011C14.4077 15.5482 14.6336 14.6933 15.0873 13.9364Z" fill="#E42314"/>
<path d="M32.4607 13.5031H29.9547V20.1732C30.8571 19.7044 31.7403 19.1994 32.6019 18.6593C32.8272 16.9439 32.7795 15.2036 32.4607 13.5031ZM27.424 4.37239C23.1815 0.470142 17.0156 -1.09736 11.1447 0.811486C5.15213 2.75849 1.03641 7.81367 0 13.6124C3.51141 11.0776 8.21494 8.71705 13.595 6.96908C18.5367 5.36342 23.3197 4.51058 27.424 4.37239Z" fill="#E42314"/>
</g>
</g>
<defs>
<clipPath id="clip0_445_3182">
<rect width="33" height="33" fill="white"/>
</clipPath>
</defs>
</svg>
