<svg width="33" height="33" viewBox="0 0 33 33" fill="none" xmlns="http://www.w3.org/2000/svg">
<g clip-path="url(#clip0_445_3172)">
<path d="M21.9584 33.0701V29.3593H9.13159V33.0636L21.9584 33.0701ZM13.5675 19.3922H9.24206C9.10955 20.1809 9.24857 22.191 9.39669 22.9511C9.77999 24.9039 10.9208 26.4969 12.7762 27.2882C15.4969 28.4472 19.4768 27.9599 21.097 25.0949C22.5301 22.5613 22.2677 18.5074 20.446 15.9101C18.067 12.5175 14.1561 10.9155 13.6441 7.30599C13.4791 6.14309 13.7273 4.85677 14.4211 4.33966C15.2371 3.73287 16.7235 3.88491 17.3095 4.52287C17.9838 5.25828 17.9384 6.56278 17.9384 7.74907H21.9584C21.9766 5.52073 21.8246 3.39768 20.307 1.74494C18.3347 -0.402831 12.1785 -1.09925 10.0061 3.40938C8.66257 6.2003 9.32263 9.87867 11.2443 12.3668L15.9244 17.2458C16.8287 18.3762 17.6954 19.4182 17.7305 21.1385C17.8084 25.0417 14.4861 24.3037 13.8806 22.9212C13.3583 21.7284 13.7819 20.5863 13.5674 19.3922H13.5675Z" fill="black"/>
</g>
<defs>
<clipPath id="clip0_445_3172">
<rect width="33" height="33" fill="white"/>
</clipPath>
</defs>
</svg>
