<svg width="33" height="33" viewBox="0 0 33 33" fill="none" xmlns="http://www.w3.org/2000/svg">
<g clip-path="url(#clip0_445_3178)">
<path d="M29.9751 22.5809L30.9808 15.5152L26.7554 6.64867L23.88 7.63354L20.1289 3.61086L13.5011 -0.0012207L12.0498 5.35715L11.022 2.54413L5.93649 7.51662L3.0884 12.4917L2.96108 17.6474L0.95752 16.6937L2.32051 24.956L5.42457 30.2754L12.7423 32.7831L18.7361 33.0013L29.0695 29.2229L32.0424 21.8753L29.9752 22.5808L29.9751 22.5809ZM25.5042 18.6647L19.6443 18.8116L19.4325 25.4043L19.1168 29.3061L14.013 29.2528V25.5121L13.5908 18.9739L7.46451 19.2364L7.25791 12.91L16.2739 12.8568L25.6081 12.593L25.7667 13.4375L25.5042 18.6647Z" fill="#FF9F00"/>
</g>
<defs>
<clipPath id="clip0_445_3178">
<rect width="33" height="33" fill="white"/>
</clipPath>
</defs>
</svg>
