<svg width="33" height="33" viewBox="0 0 33 33" fill="none" xmlns="http://www.w3.org/2000/svg">
<g clip-path="url(#clip0_445_3163)">
<path d="M17.1321 12.7565C17.1341 13.5444 17.2558 14.3281 17.493 15.0809C18.034 14.1904 18.7288 13.403 19.5452 12.7555C19.5462 11.6596 19.8819 10.5903 20.5074 9.6905C21.133 8.79075 22.0184 8.10354 23.0453 7.7209C23.1795 8.00117 23.3803 8.24432 23.6302 8.42911C23.88 8.61389 24.1713 8.7347 24.4786 8.78099C24.7859 8.82727 25.0999 8.79762 25.3931 8.69462C25.6863 8.59163 25.9498 8.41842 26.1607 8.19012C26.3871 7.94422 26.5437 7.64232 26.6144 7.31562C27.0935 7.16587 27.4934 6.83196 27.7263 6.38734C27.9591 5.94273 28.0058 5.42382 27.856 4.94477C27.7063 4.46573 27.3724 4.06579 26.9278 3.83294C26.4832 3.60009 25.9642 3.55341 25.4852 3.70315C25.2431 3.47296 24.9426 3.3134 24.6163 3.24178C24.29 3.17016 23.9504 3.1892 23.6341 3.29684C23.1969 3.43343 22.8238 3.72321 22.5832 4.11292C22.3426 4.50263 22.2507 4.96609 22.3244 5.41812C20.8061 5.95334 19.4912 6.9466 18.5614 8.26085C17.6315 9.57509 17.1325 11.1455 17.1331 12.7555L17.1321 12.7565Z" fill="#F6213D"/>
<path d="M30.2704 2.3925H2.72983V12.7545C1.91274 13.4019 1.21718 14.1893 0.67558 15.08C0.440873 14.327 0.319575 13.5432 0.315674 12.7545V0H32.6639V12.7772C32.6639 14.1971 32.2745 15.5899 31.5382 16.804C30.8019 18.0181 29.7469 19.0071 28.4878 19.6635C27.2287 20.3199 25.8137 20.6186 24.3967 20.527C22.9797 20.4354 21.615 19.9571 20.4508 19.1441C20.5395 18.2985 20.8592 17.4941 21.3769 16.8187C22.1561 17.4918 23.1122 17.927 24.1316 18.0727C25.1509 18.2184 26.1907 18.0684 27.1272 17.6405C28.0638 17.2126 28.8579 16.5248 29.4151 15.6589C29.9722 14.7929 30.2691 13.7852 30.2704 12.7555V2.39353V2.3925Z" fill="#F6213D"/>
<path d="M17.1321 19.5731C17.1319 18.1532 17.5211 16.7604 18.2572 15.5462C18.9934 14.3321 20.0484 13.343 21.3075 12.6865C22.5665 12.0301 23.9815 11.7315 25.3984 11.8231C26.8154 11.9147 28.1801 12.3931 29.3441 13.2062C29.2562 14.0518 28.936 14.8566 28.4191 15.5316C27.8245 15.0163 27.1241 14.6377 26.3672 14.4228C25.6103 14.2078 24.8154 14.1616 24.0387 14.2875C23.262 14.4134 22.5224 14.7083 21.8722 15.1514C21.2219 15.5944 20.6769 16.1749 20.2756 16.8516C19.8742 17.5284 19.6264 18.2851 19.5495 19.0682C19.4727 19.8512 19.5687 20.6416 19.8308 21.3835C20.0929 22.1254 20.5147 22.8008 21.0664 23.3618C21.6181 23.9228 22.2862 24.3558 23.0236 24.6303C23.1579 24.3501 23.3587 24.1069 23.6085 23.9221C23.8584 23.7374 24.1497 23.6165 24.457 23.5703C24.7643 23.524 25.0782 23.5536 25.3714 23.6566C25.6647 23.7596 25.9282 23.9328 26.139 24.1611C26.3659 24.4076 26.5216 24.7098 26.5928 25.0356C26.83 25.1098 27.0502 25.2299 27.241 25.3892C27.4318 25.5485 27.5893 25.7437 27.7046 25.9639C27.8199 26.1841 27.8907 26.4248 27.913 26.6723C27.9352 26.9198 27.9085 27.1693 27.8344 27.4065C27.7603 27.6437 27.6401 27.8639 27.4808 28.0547C27.3216 28.2455 27.1263 28.403 26.9061 28.5183C26.686 28.6336 26.4453 28.7044 26.1977 28.7267C25.9502 28.7489 25.7008 28.7222 25.4636 28.6481C25.2216 28.8785 24.9211 29.0382 24.5948 29.1098C24.2684 29.1814 23.9287 29.1623 23.6125 29.0544C23.1754 28.9178 22.8023 28.628 22.5619 28.2382C22.3214 27.8485 22.2298 27.385 22.3038 26.9331C20.7927 26.3825 19.4868 25.3816 18.5624 24.0655C17.638 22.7494 17.1395 21.1814 17.1341 19.5731H17.1321ZM15.8678 19.5741C15.8651 18.7856 15.7435 18.0019 15.5068 17.2497C14.9656 18.1398 14.2708 18.9268 13.4546 19.5741C13.4536 20.6698 13.1178 21.739 12.4923 22.6386C11.8668 23.5382 10.9814 24.2252 9.95458 24.6077C9.75669 24.1958 9.4172 23.869 8.99817 23.6868C8.57914 23.5047 8.10856 23.4794 7.67243 23.6156C7.35273 23.7131 7.06488 23.8943 6.83862 24.1403C6.61237 24.3863 6.45591 24.6883 6.38543 25.015C6.1483 25.0891 5.92809 25.2093 5.73739 25.3685C5.54668 25.5278 5.38921 25.723 5.27396 25.9431C5.15871 26.1632 5.08795 26.4039 5.0657 26.6513C5.04346 26.8988 5.07017 27.1482 5.14432 27.3853C5.21846 27.6225 5.33859 27.8427 5.49784 28.0334C5.65708 28.2241 5.85233 28.3815 6.07244 28.4968C6.29255 28.612 6.5332 28.6828 6.78065 28.7051C7.0281 28.7273 7.27752 28.7006 7.51465 28.6264C7.75662 28.8568 8.0571 29.0165 8.38344 29.0881C8.70979 29.1598 9.04952 29.1406 9.36574 29.0328C9.80323 28.8963 10.1767 28.6064 10.4174 28.2164C10.658 27.8265 10.7497 27.3626 10.6754 26.9104C12.1918 26.3724 13.5046 25.3786 14.434 24.0652C15.3634 22.7518 15.8638 21.1831 15.8667 19.5741H15.8678Z" fill="#F6213D"/>
<path d="M15.8678 12.7546C15.868 11.1447 15.3686 9.57449 14.4386 8.26046C13.5086 6.94644 12.1938 5.95337 10.6755 5.41825C10.7554 4.96545 10.6661 4.49905 10.4247 4.10775C10.1832 3.71646 9.80635 3.42754 9.36578 3.29594C9.04844 3.19938 8.7116 3.18604 8.38762 3.25719C8.06363 3.32835 7.76339 3.48161 7.51571 3.70225C7.03812 3.55773 6.52278 3.60768 6.08184 3.84124C5.6409 4.07481 5.31005 4.47307 5.1613 4.94936C5.01255 5.42566 5.05794 5.94142 5.28759 6.38441C5.51725 6.82741 5.91257 7.16176 6.38753 7.31472C6.47389 7.69986 6.67807 8.04853 6.97171 8.31228C7.26535 8.57603 7.63385 8.74176 8.02602 8.78644C8.41818 8.83113 8.81452 8.75254 9.15997 8.56161C9.50541 8.37067 9.7828 8.07687 9.95359 7.72103C10.6897 7.9962 11.3566 8.42952 11.9071 8.99044C12.4575 9.55135 12.8783 10.2262 13.1396 10.9674C13.4009 11.7086 13.4964 12.4981 13.4194 13.2802C13.3423 14.0623 13.0947 14.818 12.6939 15.494C12.293 16.17 11.7488 16.7499 11.0995 17.1927C10.4502 17.6355 9.71163 17.9304 8.93594 18.0567C8.16025 18.183 7.3663 18.1376 6.61006 17.9237C5.85382 17.7098 5.15372 17.3326 4.55912 16.8187C4.0237 17.4832 3.70097 18.2936 3.63306 19.1442C4.80029 19.9585 6.16846 20.4371 7.58875 20.528C9.00904 20.619 10.4271 20.3187 11.6886 19.6599C12.9502 19.0011 14.0069 18.009 14.7439 16.7915C15.481 15.574 15.869 14.1778 15.8678 12.7546Z" fill="#F6213D"/>
<path d="M0.336236 19.5731C0.335941 18.153 0.725064 16.76 1.46128 15.5457C2.19749 14.3313 3.25261 13.3421 4.51184 12.6857C5.77108 12.0292 7.18623 11.7306 8.60334 11.8224C10.0205 11.9142 11.3853 12.3928 12.5493 13.2061C12.461 14.0519 12.1405 14.8567 11.6233 15.5316C10.8441 14.8582 9.88802 14.4227 8.8686 14.2768C7.84918 14.1309 6.80931 14.2808 5.87257 14.7086C4.93583 15.1364 4.14161 15.8242 3.58431 16.6901C3.027 17.5561 2.73005 18.5639 2.72874 19.5937V29.9578H30.2703V19.5947C31.0869 18.9475 31.7821 18.1605 32.3235 17.2703C32.5587 18.0231 32.6804 18.8069 32.6845 19.5947V33.001H0.335205V19.5731H0.336236Z" fill="#F6213D"/>
</g>
<defs>
<clipPath id="clip0_445_3163">
<rect width="33" height="33" fill="white"/>
</clipPath>
</defs>
</svg>
