<svg width="33" height="33" viewBox="0 0 33 33" fill="none" xmlns="http://www.w3.org/2000/svg">
<g clip-path="url(#clip0_445_3160)">
<path d="M3.25747 -0.0012207H29.7427C30.2767 -0.0012207 30.7094 0.431453 30.7094 0.96548V32.0347C30.7094 32.5687 30.2767 33.0014 29.7427 33.0014H3.25747C2.72345 33.0014 2.29077 32.5687 2.29077 32.0347V0.96548C2.29077 0.431453 2.72345 -0.0012207 3.25747 -0.0012207ZM8.91597 27.5793H17.3693C19.9056 27.5598 21.8208 27.0037 23.1123 25.9136C24.4051 24.8222 25.0509 23.1916 25.0509 21.0204C25.0509 19.8224 24.7598 18.809 24.1777 17.9761C23.5956 17.1445 22.7615 16.5767 21.6752 16.2714C22.638 15.8868 23.3669 15.2878 23.8633 14.4758C24.3596 13.6637 24.6078 12.6853 24.6078 11.538C24.6078 9.55006 23.9088 8.03376 22.512 6.98782C21.1152 5.94316 19.0766 5.42083 16.3961 5.42083H8.91597V27.5793ZM13.9365 18.1593H17.4551C19.1806 18.1697 20.0446 19.0974 20.0446 20.9437C20.0446 21.7454 19.8017 22.3678 19.3144 22.8083C18.8284 23.25 18.132 23.4709 17.2264 23.4709H13.9365V18.1593ZM13.9365 14.6589V9.54484H16.3961C17.5213 9.54484 18.3373 9.75012 18.8427 10.1607C19.3482 10.5726 19.6002 11.2443 19.6002 12.1773C19.6002 12.9893 19.3676 13.6026 18.8999 14.0197C18.4321 14.4355 17.6512 14.6486 16.5546 14.659H13.9365V14.6589Z" fill="#FFC927"/>
</g>
<defs>
<clipPath id="clip0_445_3160">
<rect width="33" height="33" fill="white"/>
</clipPath>
</defs>
</svg>
