<svg width="33" height="33" viewBox="0 0 33 33" fill="none" xmlns="http://www.w3.org/2000/svg">
<g clip-path="url(#clip0_445_3177)">
<path d="M4.22719 5.9873H16.0203C14.5848 6.41302 12.9942 6.6077 12.7621 8.1587C11.4047 13.7456 10.0847 19.3325 9.11558 24.9964C9.77448 25.19 11.7919 25.8115 11.7919 25.8115L-0.0012207 25.85C-0.0012207 25.85 2.32638 25.19 3.10188 24.9568C4.65397 19.2544 5.50759 15.4528 6.59327 9.63384C6.63287 9.47873 7.02008 7.92663 6.82646 7.30624C6.74838 7.07305 6.59327 6.76284 6.36117 6.60773C5.62418 6.14244 5.15777 6.10284 4.22716 5.98734L4.22719 5.9873ZM18.9386 12.8194C14.5936 14.9919 12.7698 21.3543 15.4076 25.388C15.8355 26.1646 17.425 26.708 18.5118 26.4748C19.7922 26.048 20.2575 25.6212 20.956 24.8061C20.7228 26.1646 20.4511 26.9016 19.8307 28.8409C18.9001 30.9364 18.085 32.7206 15.951 32.2938C16.8827 31.0915 18.1235 29.9277 17.348 28.2986C16.611 26.708 14.2053 27.1348 14.0887 29.0356C14.0117 30.8198 14.8983 32.6458 16.534 32.8372C17.348 32.9318 17.6978 32.9538 18.4733 32.9538C21.033 32.9142 23.3606 30.9749 24.0206 28.4537C25.6112 23.2936 26.6199 17.9399 27.9388 12.7028C26.0765 12.6643 24.641 12.4696 23.2836 13.4398C21.9647 12.276 20.4126 11.9658 18.9386 12.8194L18.9386 12.8194ZM18.5118 25.5827L18.4733 24.7676C18.7054 20.8494 20.2575 13.9436 20.879 13.5179C21.5379 12.8579 22.3915 13.2847 22.8183 13.9436C22.6621 16.7761 20.879 22.7898 20.879 22.7898C20.219 24.0691 19.5975 25.5827 18.5118 25.5827Z" fill="#5B83F0"/>
</g>
<defs>
<clipPath id="clip0_445_3177">
<rect width="33" height="33" fill="white"/>
</clipPath>
</defs>
</svg>
