<svg width="33" height="33" viewBox="0 0 33 33" fill="none" xmlns="http://www.w3.org/2000/svg">
<g clip-path="url(#clip0_445_3180)">
<path d="M1.98931 -0.0013718H17.0549C17.907 -0.00521882 18.7554 0.110241 19.5755 0.341648L19.5885 0.345547C25.3185 2.01256 29.4204 5.61817 32.0477 10.9622C32.1828 11.2377 32.4777 11.5989 32.1737 11.864C31.8697 12.1277 31.576 11.7665 31.3058 11.6106C29.6348 10.6452 27.8768 9.9306 25.937 9.77597C21.0477 9.38487 16.1479 9.69283 11.2534 9.59928C10.6674 9.58887 10.4635 9.87604 10.4271 10.449C10.3634 11.4235 10.9377 11.5041 11.677 11.5041C16.6742 11.4924 21.67 11.4898 26.6672 11.4989C27.2913 11.4858 27.9153 11.5328 28.5304 11.6392C30.7587 12.042 32.3686 13.9987 32.3361 16.2621C32.34 21.3853 32.34 26.5072 32.3361 31.6305C32.3361 32.9895 32.3257 32.9973 30.9484 32.9986C26.4775 33.0012 22.0066 33.0012 17.5356 32.9986C10.7454 32.996 3.58614 28.16 1.02261 21.8453C0.916072 21.5815 0.645821 21.2632 0.891387 21.0241C1.20063 20.7214 1.49296 21.0852 1.75155 21.2398C3.67583 22.3975 5.73265 23.155 7.99087 23.1745C12.558 23.2135 17.1289 23.2005 21.6986 23.2109C22.2976 23.2135 22.7108 23.0641 22.7212 22.3313C22.7329 21.5439 22.2859 21.414 21.6493 21.3893C17.5083 21.2268 13.3661 21.3399 9.22521 21.323C7.81417 21.3178 6.4031 21.4555 4.98945 21.3022C2.66627 21.0515 0.696513 19.0869 0.678305 16.752C0.638022 11.6015 0.678305 6.44977 0.692581 1.29797C0.692581 0.582058 1.27337 -5.05063e-05 1.98928 -0.00133957L1.98931 -0.0013718Z" fill="#34BCD5"/>
</g>
<defs>
<clipPath id="clip0_445_3180">
<rect width="33" height="33" fill="white"/>
</clipPath>
</defs>
</svg>
