<svg width="33" height="33" viewBox="0 0 33 33" fill="none" xmlns="http://www.w3.org/2000/svg">
<g clip-path="url(#clip0_445_3162)">
<path d="M33.0014 16.5C33.0014 25.8466 25.6135 33.4236 16.5001 33.4236C7.38665 33.4236 -0.0012207 25.8466 -0.0012207 16.5C-0.0012207 7.15336 7.38665 -0.423584 16.5001 -0.423584C25.6135 -0.423584 33.0014 7.15336 33.0014 16.5Z" fill="#E80F0F"/>
<path d="M15.2826 23.2409H17.4759C17.5603 23.2409 17.6279 23.172 17.6279 23.0876V12.9568H19.1598C20.1875 11.0741 22.0209 10.366 22.0209 10.366H11.3821C11.3821 10.366 12.9737 10.8727 13.5584 12.9568H15.1306V23.0876C15.1306 23.172 15.1982 23.2409 15.2826 23.2409Z" fill="#F7F6F6"/>
<path d="M27.3805 13.8481L28.4277 11.8238C28.4277 11.8238 27.0179 10.4062 24.5193 10.4062C20.8917 10.4062 18.8777 13.2816 18.7569 17.047C18.6399 20.7306 21.1346 23.363 24.318 23.4033C27.5013 23.4436 28.9111 21.8649 28.9111 21.8649V16.1726C28.9111 16.0504 28.8149 15.9491 28.6941 15.9491L25.1028 15.8763C24.978 15.8724 24.878 15.9738 24.878 16.0946L24.8455 18.0345C24.8416 18.1605 24.9417 18.2619 25.0664 18.2619H26.1916C26.3125 18.2619 26.4125 18.3619 26.4125 18.484V20.6097C26.4125 20.6097 21.4725 22.7964 21.3764 16.6819C21.3361 14.1313 23.1083 12.8359 24.6402 12.7553C26.0669 12.6774 27.3805 13.8481 27.3805 13.8481L27.3805 13.8481Z" fill="#F7F6F6"/>
<path d="M16.504 -0.298828C7.45817 -0.298828 0.123535 7.22031 0.123535 16.5C0.123535 25.7797 7.45817 33.2988 16.504 33.2988C25.5511 33.2988 32.8845 25.7797 32.8845 16.5C32.8845 7.22031 25.5511 -0.298828 16.504 -0.298828ZM16.504 0.673061C25.0262 0.673061 31.9334 7.75823 31.9334 16.5C31.9334 19.5807 31.0758 22.4561 29.592 24.8897C28.9839 25.2379 26.9492 26.1487 22.3185 26.0837C16.799 26.0071 15.1384 24.7351 10.0204 24.7351C7.0788 24.7351 4.63738 25.5289 3.98773 25.7602C2.15439 23.1564 1.07467 19.9575 1.07467 16.5C1.07467 7.75823 7.98182 0.673061 16.504 0.673061H16.504ZM9.42013 26.4645C12.0473 26.4645 18.3256 29.5048 24.1842 30.2338C22.8941 31.0086 21.397 31.615 19.8054 31.9714L19.7042 31.9904C12.8659 27.7196 10.0126 26.4645 9.42013 26.4645ZM14.5745 32.2061C11.7537 31.8449 9.17069 30.7028 7.03462 28.9942C7.68688 28.9215 9.63324 29.2827 11.0235 29.9622C12.1163 30.4924 13.3857 31.2174 14.5745 32.2061ZM26.3411 28.6993C22.1132 29.0033 16.0571 26.4112 12.2604 25.9019C16.3988 25.6225 23.5879 27.8495 28.9917 25.8044C28.2265 26.8776 27.3364 27.8534 26.3411 28.6993Z" fill="#F7F6F6"/>
<path d="M11.8861 16.0349C12.6514 15.4268 13.075 14.9616 13.075 13.5441C13.075 12.0057 11.5833 10.366 8.8236 10.366C5.47916 10.366 4.59302 12.5527 4.59302 12.5527V21.9455C4.59302 21.9455 6.24444 23.2409 8.66246 23.2409C10.0761 23.2409 13.8805 23.2824 13.8805 19.0506C13.8805 17.3095 12.5708 16.6014 11.8861 16.0349ZM7.41384 13.8079C7.41384 13.8079 7.75558 12.8152 8.78331 12.7957C9.58888 12.7788 10.2736 13.3219 10.2736 13.969C10.2736 14.6979 9.73052 15.2241 9.2069 15.2241C8.75863 15.2241 7.97385 15.2774 7.58664 15.2696C7.48919 15.2696 7.41384 15.1877 7.41384 15.0915V13.8078V13.8079ZM10.8791 19.7795C10.6778 21.3179 8.01803 20.9138 7.49441 20.537C7.44504 20.5045 7.41384 20.4564 7.41384 20.3954V17.5693C7.41384 17.4797 7.48529 17.4069 7.57495 17.4069C7.57495 17.4069 9.99168 17.0834 10.718 18.115C10.9506 18.4515 10.9636 19.1363 10.8791 19.7795L10.8791 19.7795ZM16.5805 0.931641L17.6122 3.70177L20.5499 3.83171L18.245 5.66895L19.0349 8.51574L16.5805 6.88379L14.13 8.51574L14.9161 5.66895L12.6111 3.83171L15.5528 3.70177L16.5805 0.931641ZM9.46026 4.77111L10.1255 6.03404L11.5431 5.908L10.5556 6.93187L11.113 8.24807L9.83445 7.62049L8.75863 8.55989L8.96001 7.14753L7.73995 6.41083L9.138 6.16266L9.46026 4.77111ZM4.60472 8.35332L5.18941 9.02637L6.03526 8.75093L5.57529 9.51622L6.0989 10.2399L5.23356 10.0385L4.70862 10.7623L4.63327 9.87222L3.78613 9.59678L4.60469 9.24858L4.60472 8.35332ZM28.6096 8.35332L28.0249 9.02637L27.179 8.75093L27.6377 9.51622L27.1141 10.2399L27.9807 10.0385L28.5043 10.7623L28.581 9.87222L29.4268 9.59678L28.6096 9.24858V8.35332ZM23.806 4.77111L23.1369 6.03404L21.7219 5.908L22.7094 6.93187L22.1533 8.24807L23.4305 7.62049L24.5025 8.55989L24.305 7.14753L25.5263 6.41083L24.1244 6.16266L23.806 4.77111Z" fill="#F7F6F6"/>
</g>
<defs>
<clipPath id="clip0_445_3162">
<rect width="33" height="33" fill="white"/>
</clipPath>
</defs>
</svg>
