<svg width="33" height="33" viewBox="0 0 33 33" fill="none" xmlns="http://www.w3.org/2000/svg">
<g clip-path="url(#clip0_445_3170)">
<path fill-rule="evenodd" clip-rule="evenodd" d="M23.7414 11.4953C23.7249 12.0068 23.7662 12.5791 22.9669 12.841C22.4926 12.9957 21.912 12.3491 21.881 11.8974C22.1182 11.5819 22.441 11.3426 22.8112 11.2096C23.5547 10.9291 23.7311 10.8755 23.7414 11.4953ZM10.0175 12.841C9.21831 12.5781 9.25956 12.0068 9.24203 11.4953C9.25234 10.8765 9.42766 10.9281 10.1722 11.2106C10.5435 11.3447 10.8662 11.5829 11.1024 11.8985C11.0715 12.3522 10.4898 12.9968 10.0165 12.8421L10.0175 12.841ZM28.1149 27.8117C28.6036 27.5792 29.0477 27.2626 29.4267 26.8764C31.2912 24.886 31.6542 22.5925 31.878 19.9381C31.9357 19.2472 31.9233 18.549 31.9594 17.8395C31.9646 17.7302 31.9811 17.2383 32.0316 17.2393C32.1781 17.4002 32.2936 17.5858 32.374 17.7879C32.6029 18.4067 32.7483 19.0523 32.8071 19.7092C33.0206 21.0003 33.0567 22.3141 32.9164 23.6155C32.8526 24.0684 32.702 24.5046 32.473 24.9005C31.3077 26.8526 30.0186 28.6625 28.7883 30.5837C28.6862 30.7425 28.612 30.4383 28.5419 30.3867L28.4439 30.2867C28.1644 30.1361 28.0551 30.1186 27.9211 30.2104C27.8777 30.2929 27.8386 30.3744 27.7973 30.4558C27.4332 31.2406 27.0431 32.0131 26.6279 32.772C26.6049 32.8131 26.5689 32.8453 26.5256 32.8636C26.4823 32.8819 26.4341 32.8852 26.3886 32.8731C26.3432 32.861 26.3031 32.8342 26.2746 32.7969C26.246 32.7595 26.2306 32.7138 26.2308 32.6668C26.2308 31.9346 26.236 31.2024 26.2257 30.4703C26.2195 30.0134 26.2308 29.4555 25.5966 29.4565C24.9799 29.4565 24.9603 29.9959 24.9531 30.4641C24.9469 30.892 24.9531 31.32 24.9531 31.8119C24.9534 31.8503 24.9434 31.8881 24.9241 31.9213C24.9048 31.9544 24.8769 31.9818 24.8434 32.0006C24.8099 32.0194 24.772 32.0288 24.7336 32.0279C24.6952 32.027 24.6578 32.0158 24.6252 31.9955C24.1053 31.6043 23.5315 31.2906 22.9216 31.0643C22.4359 30.8697 21.9098 30.7978 21.3898 30.855C20.8698 30.9122 20.3719 31.0967 19.9402 31.3922L20.0732 31.2715C20.441 30.9376 20.8832 30.6963 21.363 30.5679C21.8429 30.4395 22.3465 30.4276 22.8318 30.5332C23.101 30.5919 23.3774 30.6136 23.6527 30.5992C23.6859 30.5974 23.7182 30.5878 23.747 30.5713C23.7758 30.5547 23.8003 30.5315 23.8185 30.5037C23.8367 30.4759 23.8481 30.4441 23.8517 30.4111C23.8553 30.378 23.8511 30.3446 23.8394 30.3135C23.4578 29.2967 22.2626 25.5718 24.718 24.3075C24.7501 24.2921 24.7778 24.2689 24.7987 24.2401C24.8195 24.2113 24.8329 24.1778 24.8376 24.1425C24.9242 23.4588 26.171 20.5022 22.7823 18.5738C22.2502 19.045 21.5954 20.1485 20.759 20.8549C22.2358 21.1725 23.0154 20.2805 23.729 19.6669C23.4372 21.3891 22.0955 21.5128 21.0272 22.1378C21.947 21.7428 22.8628 22.279 23.9559 21.7015C23.166 23.2154 21.6005 22.4688 20.6384 23.267C21.5603 23.8641 22.4121 23.5382 23.2577 23.4464C23.4971 23.4138 23.7403 23.4229 23.9765 23.4732C23.7775 23.762 23.5465 24.027 23.2887 24.2642C22.9614 24.5114 22.5906 24.6951 22.1956 24.8056C21.7929 24.9324 21.3628 24.9439 20.9539 24.8386C19.7443 24.4612 18.5583 24.0105 17.3786 23.5464C17.2652 23.4923 17.1648 23.4145 17.084 23.3182C17.0033 23.222 16.9441 23.1096 16.9104 22.9885C16.8372 22.6049 16.9259 22.1945 16.8887 21.7985C16.8435 21.557 16.8957 21.3074 17.0342 21.1045C17.1726 20.9015 17.3858 20.7617 17.6271 20.7157C18.7376 20.4075 19.7126 19.7357 20.396 18.8079C20.6247 18.4763 20.7891 18.1048 20.8807 17.7127V17.69C20.8827 17.3283 20.8198 16.9693 20.6951 16.6298C20.6247 16.3597 20.6318 16.0752 20.7157 15.809L20.7363 15.7213V15.71H20.7405L20.9807 14.6767C21.0608 14.357 21.2525 14.0765 21.5211 13.8857L21.5943 13.8413C21.6233 13.8182 21.6544 13.7979 21.6872 13.7805C22.1385 13.5447 22.6108 13.3514 23.0979 13.203C23.9464 12.8684 24.7088 12.3475 25.3289 11.6787C25.949 11.0098 26.4109 10.2102 26.6805 9.33891C26.8867 8.75316 26.9372 8.12204 26.8269 7.51051C26.6619 7.84463 26.4092 8.51391 26.2525 8.85113C26.1587 9.11303 25.9796 9.33578 25.7439 9.48355C25.5082 9.63132 25.2297 9.69552 24.9531 9.66582C23.3815 9.67716 21.8687 9.94219 21.0086 11.5798C20.6433 12.4564 19.9795 13.1754 19.1348 13.6093C19.1204 13.1349 19.1936 12.6606 19.3493 12.2109C18.6192 11.9108 18.9069 11.486 19.2967 11.0621C19.8278 10.4888 20.363 9.92054 20.9261 9.32138C20.4512 9.20294 20.0161 8.96101 19.6649 8.62013H22.7359C22.7359 8.58919 22.7411 8.55826 22.7442 8.52732C21.805 8.35641 20.9002 8.03241 20.066 7.56826C21.4922 6.6886 24.4581 7.12585 24.9583 6.96601C24.9645 6.84741 24.5478 6.75873 24.123 6.62054C23.1381 6.36582 22.7679 6.28641 21.7862 6.02035C20.8112 5.75568 19.8715 5.37482 18.9873 4.88597H23.0195C21.648 4.10617 20.1363 3.60436 18.5707 3.40922C17.8821 3.36463 17.1919 3.34949 16.502 3.36385L16.4979 3.10604V3.36385C15.9513 3.35457 15.3151 3.35354 14.4292 3.40922C12.8638 3.60516 11.3509 4.10635 9.97937 4.88597H14.0116C13.1278 5.37479 12.1873 5.75635 11.2127 6.02035C10.2279 6.28538 9.86078 6.36479 8.87697 6.62054C8.45106 6.75873 8.03547 6.84741 8.04166 6.96601C8.54181 7.13101 11.5067 6.68963 12.9329 7.56929C12.099 8.03343 11.1946 8.35743 10.2557 8.52835C10.2557 8.55929 10.2609 8.59022 10.264 8.62116H13.3351C12.9844 8.96147 12.5503 9.20279 12.0759 9.32138C12.6369 9.92054 13.1742 10.4888 13.7053 11.0621C14.0941 11.4849 14.3818 11.9088 13.6517 12.2109C13.8084 12.6606 13.8816 13.1339 13.8672 13.6093C13.0221 13.1756 12.3579 12.4566 11.9924 11.5798C11.1333 9.9391 9.61947 9.67613 8.04887 9.66582C7.77209 9.69595 7.49324 9.63194 7.2573 9.48413C7.02136 9.33632 6.84211 9.11333 6.74847 8.85113C6.59275 8.51391 6.33803 7.84566 6.17406 7.51051C6.06357 8.12244 6.11439 8.7526 6.32153 9.33891C6.59087 10.2103 7.05268 11.0101 7.67281 11.6789C8.29293 12.3478 9.0555 12.8686 9.90409 13.203C10.3919 13.3515 10.8632 13.5454 11.3148 13.7805C11.3476 13.7982 11.3787 13.8189 11.4077 13.8424C11.4303 13.8558 11.4551 13.8692 11.4798 13.8857C11.748 14.0765 11.9408 14.357 12.0202 14.6767L12.2605 15.71H12.2646C12.265 15.7137 12.265 15.7175 12.2646 15.7213L12.2852 15.81C12.3677 16.0761 12.375 16.3597 12.3048 16.6298C12.1771 16.9764 12.1142 17.3434 12.1192 17.7127C12.21 18.1045 12.375 18.4758 12.6039 18.8089C13.2871 19.7371 14.2622 20.4089 15.3728 20.7167C15.6139 20.7627 15.827 20.9024 15.9654 21.1051C16.1037 21.3079 16.1562 21.5572 16.1112 21.7985C16.0751 22.1924 16.1627 22.6049 16.0895 22.9885C16.0557 23.1094 15.9965 23.2216 15.9157 23.3176C15.835 23.4137 15.7346 23.4914 15.6213 23.5454C14.4416 24.0105 13.2536 24.4612 12.046 24.8386C11.6373 24.9444 11.2071 24.9333 10.8044 24.8066C10.4093 24.6957 10.0386 24.5117 9.71125 24.2642C9.45313 24.0275 9.2224 23.7625 9.02341 23.4743C9.25921 23.4233 9.50211 23.4139 9.74116 23.4464C10.5868 23.5392 11.4386 23.8641 12.3657 23.268C11.4025 22.4688 9.83706 23.2164 9.04712 21.7026C10.1402 22.2759 11.057 21.7438 11.9759 22.1388C10.9096 21.5128 9.56584 21.388 9.274 19.6669C9.98866 20.2805 10.7703 21.1725 12.244 20.8559C11.4087 20.1495 10.7528 19.0461 10.2207 18.5738C6.832 20.5022 8.07775 23.4609 8.16541 24.1446C8.17043 24.1796 8.18397 24.2129 8.20482 24.2414C8.22567 24.27 8.25321 24.2931 8.28503 24.3085C10.7394 25.5729 9.54419 29.2977 9.16159 30.3145C9.14456 30.3616 9.14452 30.4131 9.16147 30.4602C9.17842 30.5073 9.21129 30.5469 9.25441 30.5723C9.28277 30.5887 9.31454 30.5982 9.34722 30.6002C9.62256 30.6157 9.89894 30.593 10.1681 30.5352C10.6536 30.4294 11.1574 30.4413 11.6375 30.5697C12.1175 30.6982 12.5599 30.9395 12.9277 31.2736L13.0618 31.3932C12.6301 31.0976 12.1322 30.9131 11.6122 30.8559C11.0921 30.7987 10.566 30.8706 10.0804 31.0653C9.47001 31.2917 8.89577 31.6057 8.37578 31.9975C8.3432 32.0178 8.30576 32.029 8.26738 32.0299C8.22899 32.0308 8.19107 32.0214 8.15757 32.0027C8.12407 31.9839 8.09621 31.9565 8.07691 31.9233C8.05761 31.8901 8.04757 31.8524 8.04784 31.814V30.4661C8.04062 29.9969 8.02103 29.4596 7.40331 29.4576C6.77012 29.4576 6.78147 30.0144 6.77425 30.4713C6.76497 31.2035 6.76806 31.9367 6.77012 32.6689C6.77013 32.7158 6.75464 32.7613 6.72606 32.7985C6.69747 32.8356 6.6574 32.8623 6.61209 32.8743C6.56678 32.8863 6.51877 32.883 6.47554 32.8648C6.43231 32.8467 6.39629 32.8148 6.37309 32.7741C5.95759 32.0151 5.56722 31.2426 5.20262 30.4579C5.1655 30.3754 5.12012 30.2929 5.07887 30.2114C4.94481 30.1186 4.83344 30.1372 4.55706 30.2888L4.45806 30.3878C4.38897 30.4393 4.31369 30.7435 4.21262 30.5858C2.98234 28.6635 1.69122 26.8537 0.525906 24.9025C0.296328 24.5062 0.145738 24.0692 0.0824681 23.6155C-0.058413 22.3144 -0.0212901 21.0002 0.192812 19.7092C0.25128 19.0527 0.396936 18.407 0.625937 17.789C0.705366 17.5868 0.820652 17.4006 0.966249 17.2393C1.01781 17.2393 1.03431 17.7323 1.03844 17.8405C1.07556 18.55 1.06319 19.2472 1.12094 19.9381C1.34472 22.5925 1.70669 24.886 3.57119 26.8774C3.95069 27.2641 4.39516 27.5807 4.88397 27.8127C4.92384 27.8283 4.96746 27.8315 5.00917 27.8219C5.05088 27.8123 5.08875 27.7905 5.11788 27.7591C5.147 27.7278 5.16604 27.6884 5.17251 27.6461C5.17897 27.6038 5.17258 27.5605 5.15416 27.5219C4.58697 26.3648 3.97234 25.2253 3.51447 24.026C3.04731 22.8019 2.73484 21.518 2.37597 20.2516C2.36496 20.2146 2.36431 20.1752 2.3741 20.1378C2.38388 20.1004 2.40372 20.0665 2.43147 20.0396C2.45921 20.0127 2.4938 19.9939 2.53147 19.9853C2.56914 19.9767 2.60845 19.9785 2.64512 19.9907C2.91119 20.0835 3.26697 20.2279 3.54747 20.3362C3.57507 20.3469 3.60461 20.3517 3.63418 20.3503C3.66376 20.3489 3.6927 20.3412 3.71915 20.3279C3.74559 20.3146 3.76894 20.2959 3.78769 20.273C3.80644 20.25 3.82016 20.2234 3.82797 20.1949C3.83883 20.1568 3.83883 20.1164 3.82797 20.0783C3.47219 18.8563 2.31822 15.281 2.31822 15.281C2.38834 15.3635 3.06278 16.3473 3.11022 16.436C3.65266 17.3074 4.12806 18.22 4.53334 19.1636C4.72619 19.6617 4.88397 20.0216 4.96956 20.2103C5.00772 20.2928 5.02216 20.3908 4.95203 20.4506C3.99297 21.2622 4.7695 22.8112 5.17478 23.2938C5.73562 23.968 6.13964 24.7584 6.35762 25.6079C6.41537 25.7822 6.48962 26.0307 6.57212 26.2927C6.58905 26.3402 6.62243 26.3801 6.66623 26.4052C6.71003 26.4303 6.76136 26.4389 6.81094 26.4294C6.86052 26.42 6.90507 26.3931 6.93655 26.3536C6.96803 26.3141 6.98435 26.2647 6.98256 26.2143C6.91037 25.1212 6.71753 23.6362 6.35659 23.2979C5.79972 22.774 5.91728 20.9704 6.54119 20.6486C7.12075 20.3496 7.25069 20.033 6.95781 19.5235C6.93595 19.4864 6.92565 19.4437 6.92823 19.4007C6.9308 19.3577 6.94612 19.3165 6.97225 19.2822C6.98928 19.2594 7.01066 19.2401 7.03516 19.2255L9.703 17.6993C9.74131 17.6773 9.77187 17.644 9.79048 17.604C9.80909 17.564 9.81483 17.5192 9.80692 17.4757C9.799 17.4323 9.77781 17.3924 9.74628 17.3615C9.71474 17.3306 9.6744 17.3103 9.63081 17.3033C8.70634 17.2191 7.78453 17.4901 7.05269 18.0612C6.90061 18.1515 6.73011 18.2062 6.55392 18.2213C6.37772 18.2364 6.20039 18.2115 6.03518 18.1484C5.86997 18.0853 5.72115 17.9857 5.59984 17.8571C5.47853 17.7284 5.38787 17.574 5.33462 17.4054C5.27819 17.2702 5.23098 17.1313 5.19334 16.9898C5.16241 16.8743 5.26759 16.7763 5.38206 16.7433C6.69484 16.4154 6.89181 16.3483 6.95781 15.9503C6.96255 15.92 6.96072 15.8891 6.95246 15.8596C6.9442 15.8302 6.92971 15.8028 6.90995 15.7794C6.89019 15.7561 6.86564 15.7372 6.83795 15.7242C6.81027 15.7111 6.7801 15.7042 6.7495 15.7038C6.29266 15.7708 5.8255 15.7141 5.39856 15.5398C5.14464 15.2814 4.97896 14.9493 4.92522 14.5911C4.91438 14.5525 4.91463 14.5116 4.92595 14.4731C4.93728 14.4346 4.95921 14.4001 4.98924 14.3735C5.01927 14.3469 5.05618 14.3294 5.09574 14.3228C5.13531 14.3162 5.17592 14.3209 5.21294 14.3364C5.67494 14.5323 5.80178 14.5261 6.0565 14.3312C6.0913 14.3044 6.11714 14.2677 6.13059 14.2259C6.14403 14.1841 6.14445 14.1392 6.13178 14.0971C6.12327 14.0692 6.10924 14.0432 6.09053 14.0208C6.03398 13.9486 5.96966 13.8829 5.89872 13.8249C4.93656 13.0741 3.45775 8.92848 3.50725 7.70438C3.12053 8.03438 2.83281 8.46441 2.67194 8.94704C1.65822 8.53247 0.882718 8.40254 1.02709 6.9691L2.15322 7.55176C2.15322 7.55176 2.212 7.11657 1.60769 6.61229C0.312437 5.52948 0.116499 4.09088 0.0762806 2.52854C0.0539015 2.27477 0.102375 2.01976 0.216306 1.7919C0.330237 1.56405 0.505158 1.37227 0.721604 1.23791C0.938049 1.10355 1.18753 1.03189 1.44228 1.03089C1.69704 1.02989 1.94707 1.0996 2.16456 1.23226C4.67669 2.41407 8.13859 3.60413 10.9972 3.23701L11.09 3.21638L11.1003 3.21226L11.0931 3.21638C12.8717 2.84942 14.6819 2.65703 16.4979 2.64197H16.5134C18.3294 2.65641 20.1403 2.84822 21.9182 3.21638L21.912 3.21226L21.9202 3.21638L22.0141 3.23701C24.8717 3.6031 28.3305 2.41613 30.8467 1.23226C31.0642 1.09938 31.3142 1.02946 31.569 1.03028C31.8238 1.0311 32.0734 1.10262 32.29 1.23688C32.5066 1.37115 32.6816 1.56289 32.7957 1.79075C32.9098 2.01862 32.9583 2.27367 32.936 2.52751C32.8948 4.09088 32.6988 5.53051 31.4036 6.61126C30.8003 7.11657 30.8601 7.55176 30.8601 7.55176L31.9852 6.9691C32.1296 8.40254 31.3541 8.53248 30.3383 8.94807C30.1784 8.46542 29.8896 8.0357 29.503 7.70541C29.5525 8.92951 28.0757 13.0751 27.1136 13.8249C27.0414 13.8836 26.9764 13.9486 26.9197 14.0208C26.8908 14.0547 26.8732 14.0966 26.8691 14.1409C26.865 14.1853 26.8748 14.2297 26.897 14.2683C26.9111 14.2934 26.9301 14.3155 26.9527 14.3333C27.2074 14.5292 27.3332 14.5354 27.7973 14.3384C27.825 14.3266 27.8548 14.3208 27.8849 14.3214C27.915 14.322 27.9446 14.3291 27.9717 14.3421C27.9989 14.3551 28.0229 14.3737 28.0423 14.3967C28.0616 14.4197 28.0759 14.4466 28.084 14.4756C28.0943 14.5141 28.0943 14.5546 28.084 14.5931C28.0302 14.9512 27.8649 15.2831 27.6117 15.5419C27.184 15.7159 26.7177 15.7729 26.2607 15.7069C26.2302 15.7071 26.2 15.7139 26.1723 15.7269C26.1445 15.7398 26.1199 15.7585 26.1001 15.7818C26.0802 15.8051 26.0656 15.8324 26.0572 15.8618C26.0488 15.8912 26.0468 15.9221 26.0514 15.9523C26.1174 16.3504 26.3113 16.4164 27.6261 16.7464C27.7406 16.7742 27.8458 16.8722 27.8148 16.9918C27.7772 17.1334 27.73 17.2722 27.6736 17.4074C27.6206 17.5761 27.5302 17.7307 27.409 17.8595C27.2878 17.9883 27.139 18.0879 26.9738 18.151C26.8086 18.2141 26.6313 18.239 26.4551 18.2238C26.2789 18.2086 26.1085 18.1537 25.9565 18.0633C25.2242 17.4916 24.3015 17.2206 23.3763 17.3053C23.3329 17.3126 23.2928 17.3332 23.2615 17.3643C23.2302 17.3953 23.2093 17.4352 23.2016 17.4786C23.194 17.522 23.1999 17.5667 23.2186 17.6065C23.2373 17.6464 23.2679 17.6795 23.3062 17.7013L25.9741 19.2276C25.9988 19.2419 26.0205 19.2611 26.0378 19.2839C26.0551 19.3067 26.0677 19.3327 26.0749 19.3604C26.0821 19.3882 26.0837 19.417 26.0797 19.4454C26.0757 19.4737 26.066 19.501 26.0514 19.5256C25.7585 20.035 25.8864 20.3527 26.468 20.6507C27.0919 20.9714 27.2054 22.7751 26.6537 23.2989C26.2927 23.6393 26.0988 25.1243 26.0267 26.2164C26.0272 26.2655 26.0447 26.3129 26.0762 26.3505C26.1078 26.3882 26.1514 26.4138 26.1996 26.4229C26.2479 26.432 26.2978 26.4241 26.341 26.4006C26.3841 26.377 26.4177 26.3392 26.4361 26.2937C26.5186 26.0328 26.5928 25.7843 26.6506 25.61C26.8688 24.7603 27.2728 23.9696 27.8334 23.2948C28.2438 22.8132 29.0152 21.2643 28.0572 20.4527C28.0276 20.4205 28.0097 20.3792 28.0066 20.3356C28.0034 20.292 28.015 20.2486 28.0397 20.2124C28.1222 20.0237 28.2851 19.6638 28.4748 19.1647C28.8801 18.2221 29.3566 17.3094 29.898 16.437C30.1521 16.0453 30.4161 15.6602 30.69 15.282C30.69 15.282 29.537 18.8584 29.1823 20.0804C29.171 20.1183 29.1705 20.1585 29.1809 20.1966C29.1913 20.2348 29.2122 20.2692 29.2412 20.296C29.2702 20.3229 29.3061 20.341 29.3449 20.3485C29.3837 20.356 29.4238 20.3524 29.4607 20.3382C29.7412 20.2299 30.097 20.0845 30.3631 19.9928C30.3997 19.9806 30.439 19.9787 30.4767 19.9873C30.5144 19.996 30.549 20.0147 30.5767 20.0416C30.6045 20.0685 30.6243 20.1025 30.6341 20.1399C30.6439 20.1773 30.6432 20.2166 30.6322 20.2537C30.2733 21.518 29.9619 22.8019 29.4947 24.027C29.0348 25.2263 28.4222 26.3659 27.854 27.5229C27.8347 27.5616 27.8276 27.6052 27.8336 27.648C27.8397 27.6908 27.8587 27.7307 27.8881 27.7624C27.9174 27.7941 27.9558 27.8161 27.998 27.8255C28.0402 27.8348 28.0842 27.8311 28.1242 27.8148L28.1139 27.8117H28.1149ZM10.5837 18.3654L10.4661 18.4263C10.5084 18.4057 10.5486 18.3861 10.5837 18.3654ZM5.76672 2.74716C5.98947 2.80182 6.20294 2.85132 6.40816 2.89669C6.19887 2.83167 5.9852 2.7817 5.76878 2.74716H5.76672ZM5.48828 3.05241C2.52653 2.81935 3.07516 5.00354 3.64853 6.30085L4.12703 7.09285C4.15545 7.12423 4.17846 7.16013 4.19509 7.19907C4.19509 7.20629 4.20128 7.21351 4.20334 7.22176C4.94172 8.96251 5.55531 12.6668 9.109 14.0858C8.96956 14.0052 8.83397 13.9181 8.70269 13.8249C7.67826 12.9566 6.83991 11.8903 6.238 10.6899C4.65091 7.49813 5.0665 5.49751 4.87366 4.70241C5.18097 4.80863 6.26791 5.04272 6.48241 5.11697C6.502 5.06851 4.57253 4.23113 4.02081 3.94135C4.26535 3.78879 4.53954 3.69001 4.82519 3.65157C6.07712 3.52163 6.54737 3.91969 7.35794 4.03416C7.89984 4.08285 8.44607 4.04033 8.97391 3.90835L5.48828 3.05241ZM22.3987 18.3665C22.4348 18.3871 22.475 18.4057 22.5163 18.4263L22.3987 18.3665ZM26.5753 2.89566C26.7805 2.85029 26.9929 2.79976 27.2157 2.74716C26.9991 2.78119 26.7846 2.82966 26.5753 2.89566ZM28.778 7.22279C28.778 7.21557 28.7852 7.20835 28.7883 7.20113C28.805 7.16188 28.828 7.12565 28.8564 7.09388L29.3339 6.30291C29.9083 5.00457 30.4569 2.82038 27.4952 3.05241L24.0064 3.90835C24.5343 4.04031 25.0805 4.08284 25.6224 4.03416C26.433 3.91866 26.9042 3.52163 28.1562 3.65157C28.4418 3.68972 28.7151 3.78873 28.9606 3.94032C28.4099 4.23113 26.4804 5.06851 26.499 5.11697C26.7155 5.04272 27.8004 4.80863 28.1077 4.70241C27.9128 5.50163 28.3294 7.50226 26.7423 10.6899C26.1406 11.8904 25.3022 12.9567 24.2777 13.8249C24.1464 13.9182 24.0108 14.0053 23.8713 14.0858C27.4271 12.6637 28.0407 8.96457 28.778 7.22176V7.22279ZM16.4835 18.5634C16.0576 18.5634 15.5966 18.5634 15.0067 18.5531C14.47 18.5613 13.9374 18.4584 13.4423 18.251C13.3068 18.1562 13.2014 18.0244 13.1388 17.8713C13.0763 17.7183 13.0592 17.5504 13.0896 17.3878C13.1206 16.9403 13.7022 16.6247 13.7022 16.6247C13.6805 17.6704 14.588 17.9509 16.4814 17.9674H16.5C18.3944 17.9509 19.3008 17.6704 19.2802 16.6247C19.2802 16.6247 19.8608 16.9403 19.8907 17.3878C19.921 17.5505 19.9038 17.7184 19.841 17.8715C19.7783 18.0246 19.6727 18.1564 19.537 18.251C19.042 18.4572 18.5099 18.5603 17.9736 18.5521C17.3858 18.5624 16.9248 18.5665 16.4969 18.5624L16.4886 18.516L16.4835 18.5634ZM16.4917 29.7669C16.5474 31.1468 14.1766 31.2654 12.1749 30.066C12.0615 29.6401 12.2811 28.9059 12.0491 28.746C11.7036 28.5068 11.154 28.8213 10.8064 29.043C10.4589 29.2647 10.232 29.6896 9.89069 29.9557C10.0382 27.823 12.1646 25.8884 15.4337 25.7069C15.7915 25.6863 16.1555 25.6636 16.4927 25.6657C16.83 25.6657 17.193 25.6863 17.5518 25.7069C20.8188 25.8884 22.9463 27.8251 23.0938 29.9557C22.7493 29.6896 22.5276 29.2647 22.178 29.043C21.8295 28.8203 21.2808 28.5068 20.9354 28.745C20.7033 28.91 20.923 29.6401 20.8106 30.066C18.8058 31.2654 16.436 31.1468 16.4917 29.7669Z" fill="#D71920"/>
</g>
<defs>
<clipPath id="clip0_445_3170">
<rect width="33" height="33" fill="white"/>
</clipPath>
</defs>
</svg>
