<svg width="33" height="33" viewBox="0 0 33 33" fill="none" xmlns="http://www.w3.org/2000/svg">
<g clip-path="url(#clip0_445_3183)">
<path d="M19.7345 22.1807H8.91377L7.29094 27.3208C6.75043 28.4031 6.47886 29.4841 6.47886 30.0259C6.47886 30.5664 6.7504 31.1083 7.02068 31.3785C7.56119 31.6488 8.37327 31.919 9.72585 32.1893V33.0014H1.06982V32.1893C2.15086 31.9191 2.96294 31.6488 3.23319 31.1083C4.04527 30.2962 4.85603 28.9436 5.6681 26.5087L15.1362 -0.0012207H15.947L25.4151 26.7802C25.9556 28.9436 26.7677 30.2962 27.3082 31.1083C28.1203 31.6488 28.9324 31.9191 30.0134 32.1893V33.0014H19.194V32.1893C20.275 31.9191 21.0871 31.9191 21.3573 31.3785C21.8992 31.1083 21.8992 30.5664 21.8992 30.0259C21.8992 29.4841 21.6276 28.4031 21.0871 26.7802L19.7345 22.1807H19.7345ZM18.9224 20.5578L14.3241 7.5725L9.72581 20.5578H18.9224Z" fill="#0F0FFF"/>
</g>
<defs>
<clipPath id="clip0_445_3183">
<rect width="28.9395" height="33" fill="white" transform="translate(2)"/>
</clipPath>
</defs>
</svg>
