<svg width="33" height="33" viewBox="0 0 33 33" fill="none" xmlns="http://www.w3.org/2000/svg">
<g clip-path="url(#clip0_445_3184)">
<path d="M16.5962 33.0014C11.9329 33.0404 7.70627 30.2611 5.89504 25.963C4.08381 21.6661 5.044 16.6989 8.32737 13.3882C11.612 10.0763 16.5702 9.07317 20.8827 10.8493C25.1951 12.6255 28.0094 16.8275 28.0094 21.492C28.0354 27.821 22.9265 32.9741 16.5962 33.0014ZM16.5962 11.1924C10.9442 11.2391 6.38618 15.8348 6.38618 21.4881C6.38618 27.1414 10.9442 31.7371 16.5962 31.7839V31.7878H16.6001C22.2872 31.7865 26.8972 27.1752 26.8959 21.4881C26.8959 15.801 22.2846 11.1911 16.5962 11.1911V11.1924ZM20.0549 17.4837C16.1401 17.7292 14.5497 13.0777 18.093 12.8555C21.8649 12.619 23.884 17.229 20.0549 17.4824V17.4837ZM15.8465 8.77175C13.7709 8.84487 11.855 9.46794 10.222 10.4986L10.2685 10.4713C10.0203 9.68257 8.92892 6.74351 6.11589 5.11159C8.12854 5.22464 9.93848 6.37712 10.8922 8.15329C10.8922 8.15329 9.80074 3.51605 10.1009 -0.0012207C12.3123 2.72344 14.0131 7.17879 14.0131 7.17879C13.9936 6.99929 13.9825 6.79111 13.9825 6.58031C13.9825 4.70231 14.8654 3.03056 16.2389 1.95751L16.2518 1.94775C14.8213 4.94266 15.6242 8.03892 15.8464 8.77175H15.8465Z" fill="#F79520"/>
</g>
<defs>
<clipPath id="clip0_445_3184">
<rect width="33" height="33" fill="white"/>
</clipPath>
</defs>
</svg>
