<svg width="33" height="34" viewBox="0 0 33 34" fill="none" xmlns="http://www.w3.org/2000/svg">
<g clip-path="url(#clip0_445_3159)">
<path d="M32.2729 20.488C32.334 20.423 32.4016 20.3514 32.4799 20.2731C32.6006 19.1681 32.6855 17.8456 32.5873 16.6305L16.5458 16.6358L16.5365 22.361H25.7332C24.1573 27.0596 18.4878 28.7217 13.6221 27.4031C3.38139 24.6254 2.63058 10.0151 12.8302 6.61657C18.1893 4.83108 22.1927 6.87393 26.1166 10.2964L30.3535 6.16691C29.604 5.06458 27.1022 2.99917 25.521 2.17805C18.7624 -1.33324 10.8205 -0.593057 4.93341 4.34822C2.56159 16.1582 3.39863 18.9134 8.45665 29.2112C20.0226 29.1992 24.286 28.8159 32.273 20.488L32.2729 20.488Z" fill="black"/>
<path d="M20.7985 33.2612C24.9837 32.123 27.4815 30.4702 29.8693 26.943C31.1905 24.989 32.1999 22.6199 32.4798 20.2732C24.3576 28.8107 20.122 29.1994 8.4566 29.2113C3.39858 18.9136 2.56154 16.1584 4.93336 4.34839C-4.64411 12.4733 -2.25505 37.2461 20.7985 33.2612Z" fill="#DCA129"/>
</g>
<defs>
<clipPath id="clip0_445_3159">
<rect width="33" height="33.6909" fill="white"/>
</clipPath>
</defs>
</svg>
