<svg width="290" height="200" viewBox="0 0 290 200" fill="none" xmlns="http://www.w3.org/2000/svg">
<path d="M137.398 25.5663C136.495 26.0179 133.051 31.6069 126.729 42.8977C121.648 52.0432 117.357 59.6645 117.244 59.7774C117.131 59.8903 115.72 59.3822 114.083 58.7048C109.623 56.7289 103.018 56.5031 98.1629 58.1402C91.3884 60.3984 86.2511 67.06 84.7268 75.641C83.5413 82.4155 85.8559 90.2626 91.332 97.8839L93.9288 101.553L89.469 109.626C86.985 114.086 81.3961 124.022 77.0491 131.813C72.7586 139.547 68.4681 147.168 67.6213 148.749C66.7745 150.273 64.6857 153.999 63.0485 156.991C61.3549 159.927 60 163.032 60 163.879C60 165.798 61.8065 167.661 63.6695 167.661C64.4599 167.661 74.2264 166.024 85.4043 163.991C96.5822 161.959 105.954 160.322 106.292 160.322C106.631 160.322 106.857 162.975 106.857 167.661C106.857 173.476 107.026 175 107.647 175C108.042 175 115.777 173.589 124.866 171.895C133.955 170.201 141.576 168.79 141.915 168.79C142.197 168.79 142.423 166.193 142.423 162.862C142.423 156.991 142.423 156.935 143.778 156.935C144.512 156.935 145.528 156.765 146.036 156.596C146.826 156.314 146.939 156.991 146.939 161.959C146.939 165.121 147.165 167.661 147.447 167.661C148.181 167.661 171.835 163.145 173.077 162.806C173.924 162.524 174.037 161.677 174.037 155.298V148.015L179.57 147.055C182.562 146.547 185.554 145.983 186.231 145.813C189.167 145.192 189.788 152.814 187.36 159.475C185.836 163.766 185.892 164.725 187.642 162.58C192.441 156.652 195.32 150.047 194.756 146.434C194.361 144.176 193.119 144.571 207.571 141.974C214.232 140.789 218.579 139.716 219.144 139.208C220.329 137.966 220.216 134.635 218.918 133.224C218.353 132.603 218.015 131.982 218.128 131.926C218.241 131.813 219.257 131.192 220.386 130.514C223.039 128.877 226.709 124.925 228.346 121.82C230.209 118.264 230.209 111.489 228.233 107.537C223.208 97.2629 212.256 94.4402 204.127 101.271C201.361 103.586 201.869 104.037 205.2 102.287C209.49 100.086 214.232 100.142 217.563 102.457C225.184 107.82 223.66 119.054 214.684 123.627L212.652 124.643L201.304 108.779C195.038 100.029 185.779 87.1576 180.812 80.2138L171.666 67.5116L173.134 66.7777C175.448 65.5922 184.763 63.2211 188.884 62.8824C190.973 62.6566 192.667 62.2614 192.667 62.0356C192.667 60.9629 180.812 61.7533 172.626 63.3905L169.238 64.0679L164.722 57.8015C162.238 54.3578 156.536 46.3978 152.02 40.075C140.955 24.6066 140.39 24.042 137.398 25.5663ZM143.834 42.5025C145.81 45.3816 150.665 52.0997 154.56 57.5193L161.617 67.3423L159.415 69.2617C155.859 72.2537 154.673 75.4152 154.956 80.6654C155.181 84.6736 155.52 85.6333 159.246 93.1417C161.448 97.658 163.65 102.852 164.214 104.658C165.964 110.868 164.553 115.328 160.432 116.796C158.794 117.36 158.794 117.304 158.794 115.272C158.794 112.618 157.27 110.191 152.02 104.489C145.867 97.7145 144.794 95.3999 146.713 92.6901C148.181 90.6013 146.996 90.4319 145.189 92.4078C141.858 96.1902 142.253 98.7871 147.165 106.352C150.439 111.433 152.641 116.401 151.851 117.191C151.286 117.756 146.996 116.231 145.358 114.877C143.383 113.183 142.084 109.005 141.576 102.174C140.616 90.7142 135.027 78.1814 126.446 68.1891L123.68 64.9147L131.527 50.8577C135.818 43.1235 139.487 36.9135 139.713 37.0829C139.939 37.1958 141.802 39.6233 143.834 42.5025ZM184.763 99.5775C195.151 114.086 203.788 126.224 203.901 126.562C204.127 127.24 188.038 126.788 182.223 125.998L179.4 125.603L182.787 123.232C189.054 118.941 190.804 115.893 189.223 112.054L188.546 110.36L188.151 112.167C187.247 116.231 185.836 117.36 177.876 120.296C175.279 121.199 172.231 122.724 171.101 123.683C167.658 126.393 167.488 125.546 170.819 121.933C178.271 113.917 177.368 106.465 166.98 91.4481C160.657 82.359 159.867 78.6895 163.141 73.7215C164.383 71.8021 164.666 71.6328 165.23 72.3667C165.569 72.8183 174.376 85.0688 184.763 99.5775ZM137.907 106.691C137.286 107.876 135.874 108.158 134.519 107.255C133.842 106.804 133.898 106.578 134.914 105.449C135.535 104.715 136.552 103.247 137.116 102.174L138.189 100.198L138.358 102.852C138.471 104.32 138.245 106.013 137.907 106.691ZM122.325 108.723C124.358 108.949 126.051 109.288 126.051 109.513C126.051 109.683 125.317 110.53 124.47 111.376C121.591 114.143 117.752 112.844 114.196 107.82L113.067 106.239L115.833 107.312C117.357 107.876 120.293 108.497 122.325 108.723ZM108.325 111.602C110.075 113.522 110.188 117.643 108.55 119.619C106.631 121.877 96.2999 124.361 92.574 123.401C91.1626 123.062 91.1626 123.062 95.7354 114.933L100.365 106.804L103.639 108.497C105.502 109.4 107.591 110.812 108.325 111.602ZM168.561 137.74C168.335 137.966 167.15 138.361 166.021 138.531C163.988 138.926 163.875 138.869 163.875 137.402C163.875 135.934 163.819 135.934 161.222 136.273C156.141 137.006 156.536 136.16 156.536 146.321V155.354L158.682 155.015C163.875 154.112 163.875 154.112 163.875 152.418C163.875 150.781 164.892 150.16 167.714 150.16C168.9 150.16 168.956 150.386 168.956 154.112C168.956 156.257 168.73 158.064 168.505 158.064C168.222 158.064 164.609 158.685 160.432 159.475C156.254 160.266 152.528 160.887 152.189 160.887C151.625 160.887 151.455 157.669 151.455 146.547V132.151L154.448 131.587C156.028 131.248 159.924 130.514 163.029 129.95L168.674 128.934L168.843 133.168C168.956 135.482 168.787 137.515 168.561 137.74ZM148.351 135.426V138.192L142.987 139.265L137.624 140.281L137.286 147.507L140.278 147.112C141.915 146.886 143.834 146.547 144.568 146.378C145.697 146.096 145.81 146.265 145.81 148.636V151.176L141.858 151.91L137.907 152.588V163.709L136.382 164.048C135.479 164.217 134.35 164.5 133.842 164.669C132.882 164.895 132.826 163.935 132.826 150.273V135.595L140.052 134.184C144.004 133.393 147.504 132.772 147.786 132.716C148.125 132.66 148.351 133.902 148.351 135.426ZM90.6545 135.031C94.6063 136.668 94.945 136.95 93.7595 137.402C93.0256 137.684 89.5819 139.265 86.1382 140.902C82.638 142.539 79.7589 143.781 79.7589 143.724C79.7589 143.216 85.5737 133.224 85.8559 133.224C86.0253 133.224 88.1705 134.071 90.6545 135.031ZM128.309 142.652C128.309 148.41 128.253 148.749 126.785 150.273L125.317 151.854L126.842 153.039C128.309 154.225 128.366 154.338 128.196 159.927L128.027 165.685L119.841 167.209C115.325 168.056 111.486 168.734 111.26 168.734C110.978 168.79 110.809 162.241 110.809 154.225V139.716L118.599 138.248C122.833 137.402 126.785 136.724 127.35 136.668C128.196 136.611 128.309 137.232 128.309 142.652ZM98.9533 147.394C98.9533 147.733 98.1629 149.37 97.1467 151.007L95.3402 153.999L89.9771 154.959C86.985 155.467 84.0494 156.031 83.4284 156.201C82.8074 156.37 84.8398 154.789 87.9447 152.701C91.0497 150.612 94.2111 148.41 94.945 147.846C96.4128 146.66 98.9533 146.378 98.9533 147.394Z" fill="white"/>
<path d="M117.47 143.216C115.946 143.442 115.889 143.612 115.889 146.829V150.16L117.47 149.822C122.325 148.749 123.793 147.733 123.793 145.418C123.793 143.273 121.761 142.595 117.47 143.216Z" fill="white"/>
<path d="M117.188 156.201C116.002 156.427 115.889 156.765 115.889 159.757V163.032L118.317 162.524C123.003 161.507 124.696 159.645 123.228 156.991C122.607 155.806 120.575 155.523 117.188 156.201Z" fill="white"/>
</svg>
