<svg width="290" height="200" viewBox="0 0 290 200" fill="none" xmlns="http://www.w3.org/2000/svg">
<path d="M16 175V118.792H50.2422V129.409H26.584V141.588H45.5728V152.205H26.584V175H16Z" fill="white"/>
<path d="M58.0458 175V118.792H68.6298V175H58.0458Z" fill="white"/>
<path d="M80.2954 175V118.792H91.035L115.394 156.264V118.792H126.133V175H115.394L91.035 137.528V175H80.2954Z" fill="white"/>
<path d="M136.991 175V118.792H159.404C163.399 118.792 166.629 119.599 169.093 121.212C171.557 122.8 173.36 124.803 174.502 127.223C175.643 129.644 176.214 132.09 176.214 134.562C176.214 137.71 175.5 140.326 174.074 142.407C172.673 144.489 170.74 145.881 168.276 146.584V144.632C171.778 145.361 174.398 146.987 176.136 149.511C177.9 152.036 178.782 154.859 178.782 157.982C178.782 161.338 178.159 164.292 176.914 166.842C175.695 169.392 173.827 171.396 171.311 172.853C168.795 174.284 165.63 175 161.816 175H136.991ZM147.73 165.008H160.727C162.154 165.008 163.425 164.708 164.54 164.11C165.656 163.485 166.525 162.626 167.147 161.534C167.796 160.415 168.12 159.101 168.12 157.591C168.12 156.264 167.848 155.08 167.303 154.039C166.758 152.998 165.928 152.179 164.813 151.58C163.723 150.956 162.361 150.643 160.727 150.643H147.73V165.008ZM147.73 140.729H159.248C160.442 140.729 161.505 140.521 162.439 140.104C163.373 139.688 164.112 139.051 164.657 138.192C165.202 137.307 165.474 136.175 165.474 134.796C165.474 133.078 164.942 131.634 163.879 130.463C162.815 129.292 161.272 128.707 159.248 128.707H147.73V140.729Z" fill="white"/>
<path d="M186.542 175V118.792H223.119V128.707H197.126V140.729H218.45V150.643H197.126V165.086H223.119V175H186.542Z" fill="white"/>
<path d="M245.442 175V128.707H227.777V118.792H273.692V128.707H256.026V175H245.442Z" fill="white"/>
<path d="M199.924 101.693H227.45L184.388 41.93H157.538L199.924 101.693Z" fill="url(#paint0_linear_1266_2415)"/>
<path d="M140.287 101.862H106.513L150.419 41.93H184.53L140.287 101.862Z" fill="white"/>
<path d="M106.513 101.862H140.287L95.199 25H61.932L106.513 101.862Z" fill="url(#paint1_linear_1266_2415)"/>
<defs>
<linearGradient id="paint0_linear_1266_2415" x1="161.673" y1="25" x2="227.802" y2="72.2191" gradientUnits="userSpaceOnUse">
<stop stop-color="white" stop-opacity="0"/>
<stop offset="0.453551" stop-color="white"/>
<stop offset="1" stop-color="white" stop-opacity="0"/>
</linearGradient>
<linearGradient id="paint1_linear_1266_2415" x1="86.6138" y1="28.7246" x2="106.778" y2="103.529" gradientUnits="userSpaceOnUse">
<stop stop-color="white" stop-opacity="0"/>
<stop offset="0.416667" stop-color="white"/>
<stop offset="1" stop-color="white" stop-opacity="0"/>
</linearGradient>
</defs>
</svg>
