<svg width="290" height="200" viewBox="0 0 290 200" fill="none" xmlns="http://www.w3.org/2000/svg">
<path d="M85.8627 27.9412C79 31.3726 74.6863 35.9804 71.3529 43.0392L69 48.0392V100.098V152.157L71.9412 158.137C75.3725 165 79.9804 169.314 87.0392 172.647L92.0392 175H144.98H197.922L202.922 172.647C209.98 169.314 214.588 165 218.02 158.137L220.961 152.157V100.098V48.0392L218.608 43.0392C215.275 35.9804 210.961 31.3726 204.098 27.9412L198.118 25H144.98H91.8431L85.8627 27.9412ZM197.039 49.6079L199.882 52.549V100V147.451L197.039 150.392L194.098 153.431H144.98H95.8627L92.9216 150.392L90.0784 147.451V100V52.549L92.9216 49.6079L95.8627 46.5686H144.98H194.098L197.039 49.6079Z" fill="white"/>
<path d="M118.021 73.0392V83.8236H125.865H133.708V110.784V137.745H144.982H156.257V110.784V83.8236H164.1H171.943V73.0392V62.2549H144.982H118.021V73.0392Z" fill="white"/>
</svg>
