<svg width="121" height="122" viewBox="0 0 121 122" fill="none" xmlns="http://www.w3.org/2000/svg">
<circle cx="70" cy="42" r="18" fill="#00B7E9"/>
<path d="M70 24.045C90 24.845 108 34.3784 114.5 39.045V56.0449C91.5 41.0449 86.5 37.545 70 36.5449C56.8 35.7448 36.5 43.2115 28 47.0449C39 60.5449 60 68.5449 71 68.5449C87.6018 68.5449 98.3333 63.7116 106.5 60.5449V64.5449C98.5 70.0449 88.5 74.0449 78 77.5449C69.6 80.3449 74.5 92.7116 78 98.5449H71C64.6 91.3449 61.3333 81.5449 60.5 77.5449C29.3 71.5449 11.1667 48.3783 6 37.545C16.5 39.045 45 23.045 70 24.045Z" fill="#241F20"/>
</svg>
