<svg width="46" height="46" viewBox="0 0 46 46" fill="none" xmlns="http://www.w3.org/2000/svg">
<path d="M24.5758 5C24.2704 5 23.9775 5.12182 23.7615 5.33866C23.5456 5.5555 23.4242 5.84959 23.4242 6.15625V12.1687C23.4242 15.3531 25.5592 18.0332 28.4679 18.8519C27.9612 25.1881 26.1372 29.9172 24.6425 32.8333C25.0663 33.3328 25.4647 33.7051 25.7756 33.9664C26.9709 34.97 28.0303 36.6049 28.0303 38.6446C28.0318 39.852 27.6476 41.0281 26.9341 42H39.5455C40.4617 42 41.3403 41.6345 41.9882 40.984C42.636 40.3335 43 39.4512 43 38.5312V37.8213C43 37.0166 42.7259 36.2742 42.3045 35.6661C41.0608 33.8692 37.5395 28.0579 36.8025 18.8496C38.2542 18.441 39.5329 17.567 40.4439 16.3609C41.3549 15.1547 41.8482 13.6825 41.8485 12.1687V6.15625C41.8485 5.84959 41.7272 5.5555 41.5112 5.33866C41.2953 5.12182 41.0024 5 40.697 5H38.9697C38.5116 5 38.0723 5.18273 37.7483 5.50799C37.4244 5.83324 37.2424 6.27439 37.2424 6.73438V8.46875C37.2427 8.62059 37.2132 8.77101 37.1557 8.9114C37.0981 9.0518 37.0135 9.17944 36.9068 9.28702C36.6913 9.50429 36.3986 9.6267 36.0932 9.62731C35.7878 9.62793 35.4947 9.5067 35.2783 9.29029C35.0619 9.07388 34.94 8.78003 34.9394 8.47338V8.46875L34.9302 6.72513C34.9277 6.26674 34.7447 5.82797 34.421 5.50471C34.0974 5.18145 33.6594 4.99999 33.2029 5H32.0698C31.6133 4.99999 31.1754 5.18145 30.8517 5.50471C30.528 5.82797 30.345 6.26674 30.3425 6.72513L30.3333 8.47338C30.3327 8.78003 30.2108 9.07388 29.9944 9.29029C29.7781 9.5067 29.4849 9.62793 29.1795 9.62731C28.8741 9.6267 28.5815 9.50429 28.3659 9.28702C28.1504 9.06975 28.0297 8.77541 28.0303 8.46875V6.73438C28.0303 6.27439 27.8483 5.83324 27.5244 5.50799C27.2005 5.18273 26.7611 5 26.303 5H24.5758ZM15.3636 11.9375C14.0299 11.9375 12.7247 12.3252 11.6055 13.0537C10.4864 13.7821 9.60113 14.8203 9.05665 16.0428C8.51217 17.2654 8.33173 18.62 8.53711 19.9433C8.74249 21.2665 9.3249 22.5018 10.2141 23.5H9.60606C8.99526 23.5 8.40947 23.7436 7.97757 24.1773C7.54567 24.611 7.30303 25.1992 7.30303 25.8125C7.30303 26.4258 7.54567 27.014 7.97757 27.4477C8.40947 27.8814 8.99526 28.125 9.60606 28.125H10.8036C9.94691 32.2829 7.68764 34.6833 6.42788 35.7401C5.63103 36.4107 5 37.4421 5 38.6446C5 40.4969 6.49697 42 8.3417 42H22.3879C24.2303 42 25.7273 40.4969 25.7273 38.6446C25.7273 37.4421 25.0962 36.4107 24.2994 35.7401C23.0396 34.6833 20.7804 32.2829 19.9236 28.125H21.1212C21.732 28.125 22.3178 27.8814 22.7497 27.4477C23.1816 27.014 23.4242 26.4258 23.4242 25.8125C23.4242 25.1992 23.1816 24.611 22.7497 24.1773C22.3178 23.7436 21.732 23.5 21.1212 23.5H20.5132C21.4024 22.5018 21.9848 21.2665 22.1902 19.9433C22.3955 18.62 22.2151 17.2654 21.6706 16.0428C21.1261 14.8203 20.2409 13.7821 19.1217 13.0537C18.0026 12.3252 16.6974 11.9375 15.3636 11.9375Z" fill="white"/>
</svg>
