<svg width="46" height="46" viewBox="0 0 46 46" fill="none" xmlns="http://www.w3.org/2000/svg">
<path fill-rule="evenodd" clip-rule="evenodd" d="M8.22683 42H37.2854C39.6225 42 41.283 40.9907 42.2917 39.6032C43.2216 38.3226 43.5122 36.8488 43.5122 35.8333V23.5C43.5122 22.9548 43.2935 22.432 42.9043 22.0465C42.515 21.661 41.9871 21.4444 41.4366 21.4444H35.2098V11.1667C35.2098 9.53116 34.5537 7.96265 33.386 6.80617C32.2182 5.6497 30.6344 5 28.9829 5H8.22683C6.57537 5 4.99155 5.6497 3.8238 6.80617C2.65604 7.96265 2 9.53116 2 11.1667V35.8333C2 36.8467 2.29059 38.3226 3.22046 39.6032C4.2292 40.9928 5.88969 42 8.22683 42ZM37.2854 25.5556C37.8358 25.5556 38.3638 25.7721 38.753 26.1576C39.1423 26.5431 39.361 27.0659 39.361 27.6111V35.8333C39.361 36.3785 39.1423 36.9013 38.753 37.2868C38.3638 37.6723 37.8358 37.8889 37.2854 37.8889C36.7349 37.8889 36.2069 37.6723 35.8177 37.2868C35.4284 36.9013 35.2098 36.3785 35.2098 35.8333V27.6111C35.2098 27.0659 35.4284 26.5431 35.8177 26.1576C36.2069 25.7721 36.7349 25.5556 37.2854 25.5556ZM16.5293 19.3889C16.5293 18.8437 16.7479 18.3209 17.1372 17.9354C17.5265 17.5499 18.0544 17.3333 18.6049 17.3333C19.1554 17.3333 19.6833 17.5499 20.0726 17.9354C20.4618 18.3209 20.6805 18.8437 20.6805 19.3889C20.6805 19.9341 20.4618 20.4569 20.0726 20.8424C19.6833 21.2279 19.1554 21.4444 18.6049 21.4444C18.0544 21.4444 17.5265 21.2279 17.1372 20.8424C16.7479 20.4569 16.5293 19.9341 16.5293 19.3889ZM18.6049 13.2222C16.9534 13.2222 15.3696 13.8719 14.2018 15.0284C13.0341 16.1849 12.378 17.7534 12.378 19.3889C12.378 21.0244 13.0341 22.5929 14.2018 23.7494C15.3696 24.9059 16.9534 25.5556 18.6049 25.5556C20.2563 25.5556 21.8402 24.9059 23.0079 23.7494C24.1757 22.5929 24.8317 21.0244 24.8317 19.3889C24.8317 17.7534 24.1757 16.1849 23.0079 15.0284C21.8402 13.8719 20.2563 13.2222 18.6049 13.2222ZM12.378 29.6667C11.8276 29.6667 11.2996 29.8832 10.9104 30.2687C10.5211 30.6542 10.3024 31.1771 10.3024 31.7222C10.3024 32.2674 10.5211 32.7902 10.9104 33.1757C11.2996 33.5612 11.8276 33.7778 12.378 33.7778H24.8317C25.3822 33.7778 25.9101 33.5612 26.2994 33.1757C26.6886 32.7902 26.9073 32.2674 26.9073 31.7222C26.9073 31.1771 26.6886 30.6542 26.2994 30.2687C25.9101 29.8832 25.3822 29.6667 24.8317 29.6667H12.378Z" fill="white"/>
</svg>
