<svg width="46" height="46" viewBox="0 0 46 46" fill="none" xmlns="http://www.w3.org/2000/svg">
<path d="M34.4593 4.4256C34.4598 4.14377 34.3766 3.86815 34.2203 3.63366C34.0639 3.39917 33.8415 3.21638 33.5811 3.10847C33.3208 3.00055 33.0343 2.97236 32.7579 3.02748C32.4815 3.0826 32.2278 3.21855 32.0287 3.41808L26.3366 9.11027C26.2045 9.24267 26.0999 9.3998 26.0286 9.57268C25.9573 9.74555 25.9207 9.93079 25.9211 10.1178V18.0669L23.8121 20.1731C23.3903 20.0611 22.9483 20.0475 22.5203 20.1333C22.0923 20.219 21.6898 20.4019 21.3436 20.6678C20.9974 20.9337 20.7169 21.2755 20.5237 21.6668C20.3304 22.0582 20.2296 22.4887 20.229 22.9252C20.2291 23.3303 20.3158 23.7306 20.4831 24.0995C20.6504 24.4684 20.8945 24.7973 21.1991 25.0642C21.5036 25.3312 21.8617 25.5301 22.2493 25.6476C22.6369 25.7651 23.0452 25.7985 23.4467 25.7456C23.8483 25.6927 24.234 25.5547 24.5779 25.3409C24.9219 25.127 25.2162 24.8421 25.4413 24.5054C25.6663 24.1686 25.8169 23.7877 25.883 23.3881C25.949 22.9885 25.929 22.5794 25.8243 22.1881L27.9332 20.0791H35.8823C36.0693 20.0795 36.2545 20.0429 36.4274 19.9716C36.6003 19.9003 36.7574 19.7957 36.8898 19.6636L42.5819 13.9714C42.7815 13.7724 42.9174 13.5186 42.9725 13.2422C43.0276 12.9658 42.9995 12.6793 42.8915 12.419C42.7836 12.1586 42.6008 11.9362 42.3663 11.7799C42.1319 11.6235 41.8562 11.5403 41.5744 11.5408H34.4593V4.4256ZM39.992 20.5857C40.4817 24.1296 39.8461 27.7378 38.1748 30.901C36.5035 34.0641 33.881 36.6225 30.6775 38.215C27.4739 39.8074 23.8512 40.3535 20.3206 39.7761C16.7899 39.1988 13.5298 37.5271 11.0004 34.9972C8.47096 32.4672 6.79998 29.2067 6.22332 25.676C5.64666 22.1452 6.19345 18.5225 7.78651 15.3192C9.37957 12.1159 11.9384 9.4939 15.1019 7.82322C18.2653 6.15253 21.8736 5.51759 25.4173 6.00803L24.3273 7.09808C23.9304 7.49447 23.6155 7.96518 23.4007 8.48332C23.1858 9.00146 23.0751 9.55687 23.075 10.1178C20.542 10.1178 18.0658 10.8689 15.9597 12.2762C13.8535 13.6835 12.212 15.6838 11.2426 18.024C10.2733 20.3643 10.0196 22.9394 10.5138 25.4238C11.008 27.9082 12.2278 30.1903 14.0189 31.9815C15.81 33.7726 18.0921 34.9924 20.5764 35.4866C23.0608 35.9808 25.6359 35.7271 27.9761 34.7578C30.3164 33.7884 32.3166 32.1468 33.7239 30.0407C35.1312 27.9345 35.8823 25.4583 35.8823 22.9252C37.0141 22.9242 38.0993 22.4738 38.8991 21.6729L39.992 20.5857ZM23.075 12.9639C21.1049 12.9639 19.179 13.5481 17.5409 14.6427C15.9027 15.7372 14.626 17.293 13.872 19.1132C13.1181 20.9334 12.9208 22.9363 13.3052 24.8686C13.6896 26.8009 14.6383 28.5758 16.0314 29.969C17.4245 31.3621 19.1994 32.3108 21.1317 32.6952C23.064 33.0795 25.0668 32.8823 26.887 32.1283C28.7072 31.3744 30.2629 30.0976 31.3575 28.4595C32.452 26.8213 33.0362 24.8954 33.0362 22.9252H29.1115L28.7558 23.281C28.6873 24.3744 28.3049 25.4248 27.6542 26.3062C27.0036 27.1876 26.1124 27.8625 25.0877 28.2499C24.0629 28.6373 22.9482 28.7208 21.8772 28.4903C20.8062 28.2598 19.8244 27.7252 19.0498 26.9505C18.2752 26.1758 17.7405 25.1941 17.51 24.1231C17.2795 23.0521 17.363 21.9373 17.7504 20.9126C18.1378 19.8878 18.8127 18.9966 19.6941 18.346C20.5755 17.6953 21.6259 17.3128 22.7193 17.2444L23.075 16.8887V12.9639Z" fill="white"/>
</svg>
