<svg width="137" height="40" viewBox="0 0 137 40" fill="none" xmlns="http://www.w3.org/2000/svg">
<path fill-rule="evenodd" clip-rule="evenodd" d="M31.6417 23.4196L25.6934 13.1399L27.6619 9.69922L33.6531 19.9789L31.6417 23.4196Z" fill="#910F19"/>
<path fill-rule="evenodd" clip-rule="evenodd" d="M25.6934 26.8177L27.6619 30.2585L33.6531 19.9788L31.6845 16.5381L25.6934 26.8177Z" fill="#D22D2D"/>
<path fill-rule="evenodd" clip-rule="evenodd" d="M9.96853 16.5381L15.9597 26.8177L13.9912 30.2585L8 19.9788L9.96853 16.5381Z" fill="#00823C"/>
<path fill-rule="evenodd" clip-rule="evenodd" d="M10.0541 23.5045L16.0453 13.2249L13.9912 9.69922L8 19.9789L10.0541 23.5045Z" fill="#00A546"/>
<path fill-rule="evenodd" clip-rule="evenodd" d="M19.468 32.0001L26.4434 19.9788L24.4321 16.5381L15.4453 32.0001H19.468Z" fill="#0078B4"/>
<path fill-rule="evenodd" clip-rule="evenodd" d="M15.2109 19.9788L22.1864 8H26.1662L17.2223 23.4195L15.2109 19.9788Z" fill="#EB7D14"/>
<path d="M47.9998 30.5C45.8719 30.5 44.2566 29.94 43.154 28.82C42.0513 27.7 41.5 26.0973 41.5 24.0117V9.5H44.6918V14.9455L44.6048 16.4228C45.4366 15.3993 46.6747 14.8876 48.3189 14.8876H49.2765C51.1529 14.8876 52.6231 15.4572 53.687 16.5966C54.7703 17.7166 55.312 19.3 55.312 21.3469V24.0117C55.312 26.0973 54.751 27.7 53.629 28.82C52.507 29.94 50.8918 30.5 48.7832 30.5H47.9998ZM48.7542 27.4876C49.8181 27.4876 50.6403 27.1883 51.2206 26.5897C51.8009 25.9911 52.0911 25.1414 52.0911 24.0407V21.3469C52.0911 20.2269 51.8009 19.3676 51.2206 18.769C50.6403 18.1704 49.8181 17.871 48.7542 17.871H48.0288C46.9455 17.871 46.1137 18.1704 45.5333 18.769C44.9723 19.3676 44.6918 20.2269 44.6918 21.3469V24.0407C44.6918 25.1414 44.9723 25.9911 45.5333 26.5897C46.1137 27.1883 46.9455 27.4876 48.0288 27.4876H48.7542ZM57.683 15.2641H60.8748V30.0945H57.683V15.2641ZM57.6539 9.70276H60.8748V13.1786H57.6539V9.70276ZM68.5085 30.5C66.6901 30.5 65.2779 30.0559 64.272 29.1676C63.2855 28.26 62.7922 27.0821 62.7922 25.6338H65.984C66.0034 26.2904 66.2065 26.7924 66.5934 27.14C66.9996 27.4876 67.7057 27.6614 68.7116 27.6614H69.8723C70.8395 27.6614 71.5359 27.5262 71.9615 27.2559C72.387 26.9855 72.5998 26.5897 72.5998 26.0683C72.5998 25.5276 72.4161 25.1221 72.0485 24.8517C71.7003 24.5814 71.1587 24.3786 70.4236 24.2435L67.4058 23.6352C65.955 23.3455 64.862 22.8821 64.1269 22.2448C63.3918 21.5883 63.0243 20.5745 63.0243 19.2035C63.0243 17.8324 63.5176 16.7704 64.5042 16.0172C65.5101 15.2641 66.9222 14.8876 68.7406 14.8876H69.9593C71.7583 14.8876 73.1511 15.3317 74.1377 16.22C75.1243 17.1083 75.6176 18.2476 75.6176 19.6379H72.3967C72.3967 19.0393 72.2033 18.5662 71.8164 18.2186C71.4295 17.871 70.7428 17.6973 69.7562 17.6973H68.9437C67.9958 17.6973 67.3091 17.8324 66.8835 18.1028C66.458 18.3538 66.2452 18.7497 66.2452 19.2904C66.2452 19.7924 66.4096 20.1786 66.7384 20.449C67.0866 20.7193 67.6186 20.9221 68.3344 21.0573L71.4101 21.6655C72.8416 21.9359 73.9346 22.3993 74.689 23.0559C75.4435 23.7124 75.8207 24.7359 75.8207 26.1262C75.8207 27.5166 75.3177 28.598 74.3118 29.3704C73.3252 30.1235 71.9034 30.5 70.0464 30.5H68.5085ZM83.8678 30.5C81.7593 30.5 80.144 29.94 79.022 28.82C77.9001 27.7 77.3391 26.0973 77.3391 24.0117V21.3469C77.3391 19.2807 77.9001 17.6876 79.022 16.5676C80.144 15.4476 81.7593 14.8876 83.8678 14.8876H84.5642C86.6534 14.8876 88.259 15.4476 89.381 16.5676C90.503 17.6876 91.064 19.2807 91.064 21.3469V24.0117C91.064 26.0973 90.503 27.7 89.381 28.82C88.259 29.94 86.6534 30.5 84.5642 30.5H83.8678ZM84.5062 27.4876C85.5702 27.4876 86.3923 27.1883 86.9726 26.5897C87.553 25.9911 87.8431 25.1414 87.8431 24.0407V21.3469C87.8431 20.2269 87.553 19.3676 86.9726 18.769C86.3923 18.1704 85.5702 17.871 84.5062 17.871H83.8969C82.8329 17.871 82.0108 18.1704 81.4304 18.769C80.8501 19.3676 80.5599 20.2269 80.5599 21.3469V24.0407C80.5599 25.1414 80.8501 25.9911 81.4304 26.5897C82.0108 27.1883 82.8329 27.4876 83.8969 27.4876H84.5062ZM93.3278 21.231C93.3278 19.1648 93.8598 17.591 94.9237 16.5097C96.007 15.4283 97.5739 14.8876 99.6244 14.8876H100.408C102.439 14.8876 103.996 15.4283 105.08 16.5097C106.163 17.591 106.704 19.1648 106.704 21.231V30.0945H103.513V21.289C103.513 20.2076 103.232 19.3869 102.671 18.8269C102.13 18.2476 101.336 17.9579 100.292 17.9579H99.7405C98.6959 17.9579 97.8931 18.2476 97.3321 18.8269C96.7904 19.3869 96.5196 20.2076 96.5196 21.289V30.0945H93.3278V21.231ZM109.284 15.2641H112.476V30.0945H109.284V15.2641ZM109.255 9.70276H112.476V13.1786H109.255V9.70276ZM128.152 15.2641L123.248 22.4766L128.5 30.0945H124.612L121.101 24.7938L117.59 30.0945H113.731L118.954 22.4766L114.079 15.2641H117.909L121.101 20.2462L124.293 15.2641H128.152Z" fill="white"/>
</svg>
