<svg width="121" height="24" viewBox="0 0 121 24" fill="none" xmlns="http://www.w3.org/2000/svg">
<path fill-rule="evenodd" clip-rule="evenodd" d="M23.6408 15.4195L17.6924 5.13981L19.6609 1.6991L25.6521 11.9788L23.6408 15.4195Z" fill="#910F19"/>
<path fill-rule="evenodd" clip-rule="evenodd" d="M17.6924 18.8177L19.6609 22.2585L25.6521 11.9788L23.6836 8.53809L17.6924 18.8177Z" fill="#D22D2D"/>
<path fill-rule="evenodd" clip-rule="evenodd" d="M1.96853 8.53809L7.95972 18.8177L5.99118 22.2585L0 11.9788L1.96853 8.53809Z" fill="#00823C"/>
<path fill-rule="evenodd" clip-rule="evenodd" d="M2.05412 15.5044L8.0453 5.22477L5.99118 1.6991L0 11.9788L2.05412 15.5044Z" fill="#00A546"/>
<path fill-rule="evenodd" clip-rule="evenodd" d="M11.467 24.0001L18.4424 11.9788L16.4311 8.53809L7.44434 24.0001H11.467Z" fill="#0078B4"/>
<path fill-rule="evenodd" clip-rule="evenodd" d="M7.20996 11.9788L14.1854 0H18.1653L9.22129 15.4195L7.20996 11.9788Z" fill="#EB7D14"/>
<path d="M39.9998 22.5C37.8719 22.5 36.2566 21.94 35.154 20.82C34.0513 19.7 33.5 18.0973 33.5 16.0117V1.5H36.6918V6.94552L36.6048 8.42277C37.4366 7.39932 38.6747 6.88759 40.3189 6.88759H41.2765C43.1529 6.88759 44.6231 7.45725 45.687 8.59656C46.7703 9.71656 47.312 11.3 47.312 13.3469V16.0117C47.312 18.0973 46.751 19.7 45.629 20.82C44.507 21.94 42.8918 22.5 40.7832 22.5H39.9998ZM40.7542 19.4876C41.8181 19.4876 42.6403 19.1883 43.2206 18.5897C43.8009 17.9911 44.0911 17.1414 44.0911 16.0407V13.3469C44.0911 12.2269 43.8009 11.3676 43.2206 10.769C42.6403 10.1704 41.8181 9.87104 40.7542 9.87104H40.0288C38.9455 9.87104 38.1137 10.1704 37.5333 10.769C36.9723 11.3676 36.6918 12.2269 36.6918 13.3469V16.0407C36.6918 17.1414 36.9723 17.9911 37.5333 18.5897C38.1137 19.1883 38.9455 19.4876 40.0288 19.4876H40.7542ZM49.683 7.26414H52.8748V22.0945H49.683V7.26414ZM49.6539 1.70276H52.8748V5.17862H49.6539V1.70276ZM60.5085 22.5C58.6901 22.5 57.2779 22.0559 56.272 21.1676C55.2855 20.26 54.7922 19.0821 54.7922 17.6338H57.984C58.0034 18.2904 58.2065 18.7924 58.5934 19.14C58.9996 19.4876 59.7057 19.6614 60.7116 19.6614H61.8723C62.8395 19.6614 63.5359 19.5262 63.9615 19.2559C64.387 18.9855 64.5998 18.5897 64.5998 18.0683C64.5998 17.5276 64.4161 17.1221 64.0485 16.8517C63.7003 16.5814 63.1587 16.3786 62.4236 16.2435L59.4058 15.6352C57.955 15.3455 56.862 14.8821 56.1269 14.2448C55.3918 13.5883 55.0243 12.5745 55.0243 11.2035C55.0243 9.83242 55.5176 8.77035 56.5042 8.01725C57.5101 7.26414 58.9222 6.88759 60.7406 6.88759H61.9593C63.7583 6.88759 65.1511 7.33173 66.1377 8.22001C67.1243 9.10828 67.6176 10.2476 67.6176 11.6379H64.3967C64.3967 11.0393 64.2033 10.5662 63.8164 10.2186C63.4295 9.87104 62.7428 9.69725 61.7562 9.69725H60.9437C59.9958 9.69725 59.3091 9.83242 58.8835 10.1028C58.458 10.3538 58.2452 10.7497 58.2452 11.2904C58.2452 11.7924 58.4096 12.1786 58.7384 12.449C59.0866 12.7193 59.6186 12.9221 60.3344 13.0573L63.4101 13.6655C64.8416 13.9359 65.9346 14.3993 66.689 15.0559C67.4435 15.7124 67.8207 16.7359 67.8207 18.1262C67.8207 19.5166 67.3177 20.598 66.3118 21.3704C65.3252 22.1235 63.9034 22.5 62.0464 22.5H60.5085ZM75.8678 22.5C73.7593 22.5 72.144 21.94 71.022 20.82C69.9001 19.7 69.3391 18.0973 69.3391 16.0117V13.3469C69.3391 11.2807 69.9001 9.6876 71.022 8.56759C72.144 7.44759 73.7593 6.88759 75.8678 6.88759H76.5642C78.6534 6.88759 80.259 7.44759 81.381 8.56759C82.503 9.6876 83.064 11.2807 83.064 13.3469V16.0117C83.064 18.0973 82.503 19.7 81.381 20.82C80.259 21.94 78.6534 22.5 76.5642 22.5H75.8678ZM76.5062 19.4876C77.5702 19.4876 78.3923 19.1883 78.9726 18.5897C79.553 17.9911 79.8431 17.1414 79.8431 16.0407V13.3469C79.8431 12.2269 79.553 11.3676 78.9726 10.769C78.3923 10.1704 77.5702 9.87104 76.5062 9.87104H75.8969C74.8329 9.87104 74.0108 10.1704 73.4304 10.769C72.8501 11.3676 72.5599 12.2269 72.5599 13.3469V16.0407C72.5599 17.1414 72.8501 17.9911 73.4304 18.5897C74.0108 19.1883 74.8329 19.4876 75.8969 19.4876H76.5062ZM85.3278 13.231C85.3278 11.1648 85.8598 9.59104 86.9237 8.50966C88.007 7.42828 89.5739 6.88759 91.6244 6.88759H92.4079C94.439 6.88759 95.9963 7.42828 97.0796 8.50966C98.1629 9.59104 98.7045 11.1648 98.7045 13.231V22.0945H95.5127V13.289C95.5127 12.2076 95.2322 11.3869 94.6712 10.8269C94.1295 10.2476 93.3364 9.95794 92.2918 9.95794H91.7405C90.6959 9.95794 89.8931 10.2476 89.3321 10.8269C88.7904 11.3869 88.5196 12.2076 88.5196 13.289V22.0945H85.3278V13.231ZM101.284 7.26414H104.476V22.0945H101.284V7.26414ZM101.255 1.70276H104.476V5.17862H101.255V1.70276ZM120.152 7.26414L115.248 14.4766L120.5 22.0945H116.612L113.101 16.7938L109.59 22.0945H105.731L110.954 14.4766L106.079 7.26414H109.909L113.101 12.2462L116.293 7.26414H120.152Z" fill="#282D32"/>
</svg>
